<svg width="512" height="512" viewBox="0 0 512 512" fill="none" xmlns="http://www.w3.org/2000/svg">
<path fill-rule="evenodd" clip-rule="evenodd" d="M146.16 229.352C144.968 225.606 144.287 220.497 144.287 214.197H143.946V159.024C143.946 140.293 139.178 126.329 129.812 117.134C120.276 107.938 105.462 103.341 85.1975 103.341C75.8318 103.341 66.9769 104.362 58.6329 106.576C50.2889 108.619 43.1369 111.174 37.1769 114.239C34.7929 115.431 33.2603 116.623 32.4089 117.815C31.5575 119.007 31.2169 121.05 31.2169 123.775V132.119C31.2169 135.695 32.4089 137.398 34.7929 137.398C35.4741 137.398 36.3255 137.227 37.5175 136.887C38.7095 136.546 40.7529 135.865 43.4775 134.673C49.4375 132.289 55.5678 130.416 61.8684 128.883C68.1689 127.351 74.2992 126.67 80.2592 126.67C93.3712 126.67 102.567 129.224 108.016 134.503C113.295 139.782 116.019 148.807 116.019 161.749V174.179C109.208 172.647 102.737 171.285 96.4364 170.433C90.1358 169.582 84.1758 169.071 78.3861 169.071C60.8466 169.071 47.0535 173.498 36.666 182.353C26.2786 191.208 21.17 202.958 21.17 217.432C21.17 231.055 25.4272 241.953 33.7712 250.127C42.1152 258.301 53.5243 262.388 67.8284 262.388C87.9221 262.388 104.61 254.554 117.892 238.888C119.766 242.805 121.468 246.04 123.171 248.935C124.874 251.66 126.918 254.384 129.302 256.938C131.004 258.471 132.707 259.322 134.41 259.322C135.772 259.322 137.305 258.812 138.838 257.79L149.566 250.638C151.779 248.935 152.801 247.232 152.801 245.529C152.801 244.337 152.46 242.975 151.609 241.613C149.225 237.185 147.522 233.098 146.16 229.352ZM92.6901 237.015C86.5598 239.058 80.7701 240.08 75.1506 240.08C67.3175 240.08 61.3575 238.037 57.2706 233.779C53.0135 229.693 50.9701 223.733 50.9701 215.729C50.9701 207.215 53.6946 200.744 59.3141 196.146C64.9335 191.549 73.2775 189.335 84.6867 189.335C89.9655 189.335 95.2444 189.675 100.694 190.357C106.143 191.038 111.422 192.059 116.36 193.251V200.403C116.36 206.193 115.679 211.132 114.657 215.218C113.635 219.305 111.592 222.881 108.867 226.117C104.27 231.225 98.8204 234.971 92.6901 237.015Z" fill="white"/>
<path d="M205.419 256.768C206.782 257.96 208.825 258.471 211.89 258.471H226.535C229.6 258.471 231.984 257.96 233.346 256.768C234.708 255.576 235.73 253.362 236.582 249.957L262.806 140.293L289.2 250.127C289.881 253.533 291.073 255.746 292.435 256.938C293.798 258.13 296.011 258.641 299.247 258.641H313.891C316.786 258.641 319 257.96 320.362 256.938C321.725 255.917 322.917 253.703 323.938 250.297L364.977 118.666C365.658 116.793 365.999 115.431 366.169 114.409C366.194 114.26 366.219 114.115 366.243 113.972C366.385 113.139 366.51 112.412 366.51 111.685C366.51 108.79 364.977 107.427 362.253 107.427H346.416C343.351 107.427 341.137 108.109 339.775 109.13C338.583 110.152 337.391 112.366 336.369 115.771L306.91 229.863L280.005 115.771C279.323 112.536 278.131 110.152 276.769 109.13C275.407 107.938 273.193 107.427 269.958 107.427H256.335C253.27 107.427 250.886 108.109 249.523 109.13C248.161 110.152 247.139 112.366 246.288 115.771L219.723 228.501L191.115 115.771C190.094 112.536 189.072 110.152 187.71 109.13C186.518 107.938 184.304 107.427 181.068 107.427H164.38C161.656 107.427 160.294 108.96 160.294 111.685C160.294 112.877 160.804 115.09 161.826 118.496L201.843 250.127C202.865 253.362 204.057 255.746 205.419 256.768Z" fill="white"/>
<path d="M404.483 260.004C412.998 262.047 421.853 263.069 430.707 263.069C439.392 263.069 447.395 261.877 455.058 259.493C462.381 257.279 468.681 254.214 473.96 249.957C479.239 245.87 483.326 240.761 486.391 234.972C489.286 229.182 490.818 222.541 490.818 215.218C490.818 206.364 488.264 198.36 482.985 191.378C477.706 184.397 468.851 178.947 456.591 175.031L432.41 167.368C423.385 164.473 417.085 161.238 413.679 158.002C410.273 154.767 408.57 150.68 408.57 145.912C408.57 138.93 411.295 133.992 416.574 130.757C421.853 127.521 429.515 125.989 439.222 125.989C451.312 125.989 462.21 128.202 471.917 132.63C474.811 133.992 477.025 134.673 478.388 134.673C480.942 134.673 482.304 132.8 482.304 129.224V121.221C482.304 118.837 481.793 116.963 480.771 115.601C479.75 114.069 478.047 112.706 475.663 111.344C473.96 110.322 471.576 109.301 468.511 108.279C465.446 107.257 462.21 106.406 458.805 105.554C455.229 104.873 451.653 104.192 447.736 103.681C443.99 103.17 440.073 103 436.327 103C428.834 103 421.682 103.851 414.871 105.895C408.059 107.938 402.27 110.833 397.161 114.75C392.053 118.496 387.966 123.264 384.901 128.713C381.835 134.162 380.303 140.463 380.303 147.615C380.303 156.47 383.198 164.814 388.817 172.306C394.437 179.969 403.632 185.759 416.063 189.675L440.754 197.338C449.098 200.063 454.888 202.958 457.953 206.193C461.018 209.429 462.551 213.345 462.551 218.113C462.551 225.095 459.486 230.544 453.696 234.29C447.906 238.037 439.562 239.91 428.834 239.91C422.023 239.91 415.382 239.229 408.57 237.866C401.929 236.504 395.629 234.461 389.839 231.906C389.236 231.665 388.654 231.424 388.108 231.198C387.114 230.785 386.241 230.423 385.582 230.204C384.56 229.863 383.538 229.693 382.517 229.693C379.962 229.693 378.6 231.396 378.6 234.972V243.656C378.6 245.189 378.941 246.892 379.622 248.424C380.303 249.957 382.176 251.66 384.901 253.192C389.328 255.746 395.969 257.96 404.483 260.004Z" fill="white"/>
<path d="M255.483 409.174C325.471 409.174 406.867 387.207 462.891 345.828C472.087 339.016 464.083 328.629 454.718 332.886C391.882 359.45 323.598 372.392 261.443 372.392C169.319 372.392 80.2591 347.02 8.05795 305.129C1.75738 301.383 -3.01062 307.854 2.26824 312.622C69.0203 372.903 157.399 409.174 255.483 409.174Z" fill="white"/>
<path d="M420.66 317.049C438.881 314.836 479.069 310.068 486.221 319.263C493.373 328.288 478.217 366.262 471.406 383.12C469.362 388.229 473.79 390.272 478.387 386.356C508.358 361.153 516.191 308.535 510.061 300.872C503.93 293.38 451.312 286.909 419.298 309.386C414.36 312.962 415.211 317.73 420.66 317.049Z" fill="white"/>
</svg>
