<svg width="512" height="512" viewBox="0 0 512 512" fill="none" xmlns="http://www.w3.org/2000/svg">
<path d="M170.687 15.0058L341.341 15.0058C351.691 15.0058 360.888 21.6073 364.196 31.4143L510.733 465.6C513.218 472.961 512.005 481.069 507.475 487.381C502.945 493.693 495.652 497.44 487.883 497.44H319.026C319.204 497.44 319.381 497.438 319.557 497.434H313.941C307.794 497.434 301.876 495.104 297.381 490.911L194.104 394.516L216.701 327.565H295.296L255.999 211.129L216.701 327.565H150.595C146.024 327.56 141.915 330.353 140.238 334.605C138.561 338.857 139.658 343.702 143.001 346.819L194.104 394.516L164.914 481.002C161.6 490.821 152.393 497.434 142.03 497.434H24.1212C16.3526 497.434 9.05927 493.694 4.52798 487.383C-0.00331116 481.073 -1.21769 472.967 1.26562 465.606L147.796 31.4376C151.109 21.6148 160.32 15 170.687 15V15.0058Z" fill="white"/>
</svg>
