<svg width="512" height="512" viewBox="0 0 512 512" fill="none" xmlns="http://www.w3.org/2000/svg">
<g clip-path="url(#clip0_334_984)">
<path d="M508.493 249.719L486.998 236.413C486.817 234.32 486.612 232.231 486.387 230.152L504.858 212.923C506.736 211.172 507.578 208.579 507.069 206.07C506.575 203.551 504.809 201.477 502.407 200.581L478.795 191.752C478.203 189.707 477.582 187.677 476.946 185.657L491.675 165.199C493.177 163.12 493.485 160.415 492.506 158.043C491.528 155.68 489.39 153.987 486.861 153.572L461.962 149.521C460.994 147.633 459.986 145.774 458.969 143.93L469.432 120.963C470.503 118.625 470.283 115.905 468.855 113.782C467.431 111.649 465.02 110.402 462.447 110.5L437.176 111.38C435.87 109.746 434.539 108.127 433.184 106.537L438.991 81.9222C439.578 79.4225 438.839 76.8054 437.019 74.9905C435.214 73.1806 432.592 72.4322 430.093 73.0192L405.482 78.8208C403.887 77.4707 402.268 76.1352 400.63 74.8291L401.515 49.5583C401.613 46.9999 400.365 44.5687 398.233 43.1501C396.095 41.7217 393.39 41.5065 391.056 42.568L368.094 53.0364C366.241 52.0189 364.382 51.0112 362.503 50.0377L358.443 25.1338C358.032 22.6097 356.34 20.4671 353.972 19.4887C351.609 18.5055 348.899 18.8235 346.82 20.3203L326.348 35.0494C324.333 34.4086 322.308 33.7922 320.263 33.2052L311.433 9.58783C310.538 7.18109 308.464 5.41517 305.945 4.91621C303.43 4.42214 300.843 5.25863 299.096 7.12728L281.868 25.6132C279.789 25.3833 277.695 25.173 275.606 25.0017L262.301 3.50249C260.955 1.32566 258.573 0 256.01 0C253.447 0 251.064 1.32566 249.724 3.50249L236.418 25.0017C234.325 25.173 232.231 25.3833 230.152 25.6132L212.918 7.12728C211.172 5.25863 208.579 4.42214 206.07 4.91621C203.551 5.42006 201.477 7.18109 200.581 9.58783L191.752 33.2052C189.707 33.7922 187.682 34.4135 185.662 35.0494L165.194 20.3203C163.115 18.8186 160.405 18.5006 158.038 19.4887C155.675 20.4671 153.978 22.6097 153.567 25.1338L149.507 50.0377C147.628 51.0112 145.769 52.014 143.915 53.0364L120.953 42.568C118.62 41.5016 115.9 41.7217 113.777 43.1501C111.644 44.5687 110.397 46.9999 110.495 49.5583L111.375 74.8291C109.742 76.1352 108.122 77.4707 106.523 78.8208L81.9124 73.0192C79.4127 72.437 76.7907 73.1806 74.9808 74.9905C73.161 76.8054 72.4224 79.4225 73.0094 81.9222L78.8061 106.537C77.4609 108.132 76.1303 109.746 74.8242 111.38L49.5534 110.5C47.0048 110.426 44.5687 111.649 43.1452 113.782C41.7169 115.905 41.5016 118.625 42.5631 120.963L53.0315 143.93C52.014 145.774 51.0063 147.633 50.0328 149.521L25.1338 153.572C22.6048 153.983 20.472 155.675 19.4887 158.043C18.5104 160.415 18.8283 163.12 20.3203 165.199L35.0494 185.657C34.4086 187.677 33.7873 189.707 33.2003 191.752L9.58294 200.581C7.18598 201.477 5.42006 203.551 4.9211 206.07C4.42214 208.584 5.25863 211.172 7.13217 212.923L25.6083 230.152C25.3784 232.231 25.173 234.325 24.9968 236.413L3.50249 249.719C1.32566 251.064 0 253.442 0 256.01C0 258.578 1.32566 260.955 3.50249 262.296L24.9968 275.601C25.173 277.695 25.3784 279.784 25.6083 281.863L7.13217 299.096C5.25863 300.843 4.42214 303.435 4.9211 305.945C5.42006 308.464 7.18598 310.533 9.58294 311.433L33.2003 320.263C33.7873 322.308 34.4086 324.338 35.0494 326.358L20.3203 346.82C18.8235 348.904 18.5055 351.609 19.4887 353.972C20.472 356.345 22.6097 358.037 25.1387 358.443L50.0328 362.493C51.0063 364.382 52.0042 366.241 53.0315 368.094L42.5631 391.051C41.4967 393.385 41.7169 396.1 43.1452 398.233C44.5736 400.37 47.0048 401.618 49.5534 401.515L74.8144 400.63C76.1303 402.273 77.456 403.883 78.8061 405.482L73.0094 430.102C72.4224 432.597 73.161 435.204 74.9808 437.019C76.7858 438.844 79.4127 439.573 81.9124 438.986L106.523 433.189C108.122 434.549 109.742 435.87 111.375 437.171L110.495 462.447C110.397 465.005 111.644 467.431 113.777 468.86C115.9 470.283 118.62 470.498 120.953 469.432L143.915 458.969C145.764 459.996 147.623 460.994 149.507 461.967L153.567 486.856C153.978 489.39 155.67 491.533 158.038 492.506C160.401 493.49 163.115 493.172 165.194 491.68L185.652 476.941C187.672 477.582 189.702 478.208 191.747 478.795L200.576 502.402C201.472 504.799 203.546 506.575 206.065 507.064C208.579 507.573 211.167 506.732 212.913 504.853L230.147 486.377C232.226 486.617 234.32 486.817 236.413 487.003L249.719 508.498C251.059 510.665 253.442 512 256.005 512C258.568 512 260.95 510.669 262.296 508.498L275.601 487.003C277.695 486.817 279.784 486.617 281.863 486.377L299.091 504.853C300.838 506.732 303.43 507.573 305.94 507.064C308.459 506.57 310.533 504.799 311.428 502.402L320.258 478.795C322.303 478.208 324.333 477.582 326.353 476.941L346.815 491.68C348.894 493.172 351.604 493.49 353.967 492.506C356.335 491.533 358.027 489.385 358.438 486.856L362.498 461.967C364.377 460.994 366.236 459.981 368.09 458.969L391.051 469.432C393.385 470.498 396.1 470.283 398.228 468.86C400.36 467.431 401.603 465.01 401.51 462.447L400.63 437.171C402.263 435.865 403.883 434.549 405.477 433.189L430.088 438.986C432.587 439.573 435.209 438.844 437.014 437.019C438.834 435.204 439.573 432.597 438.986 430.102L433.189 405.482C434.539 403.883 435.87 402.273 437.171 400.63L462.442 401.515C464.99 401.618 467.426 400.37 468.85 398.233C470.278 396.1 470.498 393.385 469.427 391.051L458.964 368.094C459.986 366.241 460.989 364.382 461.957 362.493L486.856 358.443C489.39 358.037 491.523 356.345 492.501 353.972C493.48 351.609 493.172 348.904 491.67 346.82L476.941 326.358C477.577 324.338 478.198 322.308 478.79 320.263L502.402 311.433C504.804 310.533 506.575 308.464 507.064 305.945C507.573 303.43 506.732 300.843 504.853 299.096L486.382 281.863C486.607 279.784 486.812 277.69 486.993 275.601L508.488 262.296C510.665 260.955 511.99 258.573 511.99 256.01C511.99 253.447 510.669 251.064 508.493 249.719ZM364.631 428.028C356.423 426.257 351.203 418.166 352.964 409.934C354.72 401.711 362.807 396.476 371.01 398.247C379.218 400.003 384.448 408.109 382.687 416.327C380.926 424.545 372.835 429.784 364.631 428.028ZM357.328 378.631C349.838 377.027 342.471 381.791 340.867 389.295L333.236 424.907C309.687 435.596 283.536 441.534 255.995 441.534C227.824 441.534 201.105 435.302 177.135 424.159L169.509 388.547C167.904 381.053 160.537 376.278 153.053 377.888L121.614 384.638C115.778 378.631 110.348 372.233 105.359 365.477H258.333C260.065 365.477 261.22 365.164 261.22 363.589V309.477C261.22 307.901 260.065 307.588 258.333 307.588H213.593V273.287H261.983C266.4 273.287 285.6 274.55 291.739 299.091C293.662 306.639 297.883 331.191 300.769 339.052C303.646 347.867 315.357 365.477 327.835 365.477H404.064C404.929 365.477 405.854 365.38 406.827 365.203C401.539 372.389 395.738 379.189 389.491 385.543L357.328 378.631ZM145.75 427.285C137.541 429.055 129.46 423.821 127.694 415.598C125.938 407.361 131.158 399.275 139.366 397.504C147.574 395.748 155.66 400.982 157.421 409.205C159.178 417.423 153.953 425.524 145.75 427.285ZM87.7189 191.967C91.1235 199.652 87.6602 208.658 79.985 212.057C72.3099 215.467 63.3286 211.999 59.924 204.309C56.5193 196.619 59.9827 187.628 67.6578 184.218C75.3379 180.814 84.3142 184.277 87.7189 191.967ZM69.8836 234.246L102.634 219.693C109.629 216.587 112.789 208.389 109.683 201.379L102.937 186.126H129.465V305.7H75.9444C71.3022 289.381 68.8123 272.157 68.8123 254.356C68.8123 247.562 69.1791 240.845 69.8836 234.246ZM213.603 222.633V187.388H276.775C280.038 187.388 299.815 191.16 299.815 205.948C299.815 218.226 284.646 222.628 272.172 222.628H213.603V222.633ZM443.183 254.356C443.183 259.033 443.012 263.66 442.669 268.254H423.464C421.542 268.254 420.769 269.516 420.769 271.399V280.219C420.769 300.98 409.063 305.495 398.805 306.644C389.036 307.745 378.206 302.555 376.87 296.577C371.108 264.164 361.505 257.243 346.341 245.282C365.159 233.332 384.741 215.702 384.741 192.104C384.741 166.623 367.273 150.573 355.366 142.702C338.661 131.691 320.165 129.485 315.176 129.485H116.556C143.49 99.4248 179.992 78.1311 221.278 70.3825L244.69 94.944C249.983 100.486 258.749 100.692 264.287 95.394L290.482 70.3385C345.372 80.5574 391.844 114.726 418.626 161.604L400.693 202.108C397.597 209.117 400.757 217.316 407.747 220.422L442.273 235.758C442.87 241.887 443.183 248.08 443.183 254.356ZM244.7 49.4898C250.766 43.6784 260.388 43.9084 266.194 49.9839C271.991 56.0741 271.771 65.706 265.691 71.5125C259.625 77.3239 250.003 77.0989 244.196 71.0135C238.404 64.9331 238.624 55.3012 244.7 49.4898ZM422.662 192.706C426.062 185.021 435.043 181.552 442.718 184.962C450.393 188.367 453.857 197.367 450.452 205.052C447.052 212.742 438.071 216.21 430.391 212.801C422.726 209.396 419.262 200.4 422.662 192.706Z" fill="white"/>
</g>
<defs>
<clipPath id="clip0_334_984">
<rect width="512" height="512" fill="white"/>
</clipPath>
</defs>
</svg>
