<svg width="512" height="512" viewBox="0 0 512 512" fill="none" xmlns="http://www.w3.org/2000/svg">
<g id="Type=Outline">
<path id="Shape" fill-rule="evenodd" clip-rule="evenodd" d="M56.8701 69.8589C62.3841 40.5824 108.619 18.5887 183.423 9.32925C239.416 2.60835 320.421 6.33294 370.463 18.0893C411.205 27.8481 441.21 46.8664 447.972 67.6117C449.72 72.3558 450.989 98.095 451.218 129.119C451.489 172.878 450.719 183.885 447.473 189.878C444.476 196.141 444.227 198.118 446.994 202.134C452.508 210.124 453.236 217.386 453.757 266.908C454.235 301.449 453.486 315.931 451.218 320.176C448.721 324.941 448.721 327.687 451.967 335.927C455.213 343.668 455.962 355.944 455.962 394.688C455.962 440.444 455.712 444.46 450.469 453.428C430.951 488.24 348.678 508.507 240.894 504.99C154.146 502.243 95.1355 485.743 72.8504 457.985C68.1063 451.993 64.8395 444.211 63.3621 434.202C59.8456 412.978 60.1161 342.44 63.8823 334.45C66.0879 329.414 66.0879 325.94 63.8823 319.676C62.1345 315.161 60.1161 290.421 59.0965 264.89C57.8481 224.419 58.0978 216.886 61.864 207.127C65.859 196.64 65.859 195.392 61.864 187.631C58.0978 180.91 57.3695 170.402 56.3499 128.87C55.8713 101.112 55.8713 74.6031 56.8701 69.8589ZM308.956 383.452C236.69 389.715 129.905 379.186 108.39 363.456H108.369C103.875 360.189 101.877 355.944 100.878 348.433L99.63 337.696L94.1367 343.689C88.6227 349.452 88.3522 351.471 88.3522 394.709C88.3522 438.26 88.6227 439.987 93.887 445.23C115.111 464.998 193.639 477.753 277.182 474.985C322.418 473.487 350.717 469.991 380.95 462.001C398.72 457.465 419.986 446.957 422.004 441.963C422.503 440.236 423.481 418.451 423.752 393.461C424.23 347.434 422.982 340.671 414.472 340.671C411.975 340.671 410.976 343.938 410.976 350.95C410.976 360.439 410.497 361.209 399.469 366.202C382.969 373.444 348.698 379.936 308.956 383.452ZM100.899 220.403C100.899 230.64 105.893 234.885 125.39 240.628C195.907 261.893 354.962 259.147 400.489 235.884C409.748 231.14 410.976 229.641 410.976 221.901C410.976 212.392 413.473 210.894 419.445 217.157C419.787 217.497 420.105 217.79 420.398 218.062C420.885 218.513 421.306 218.903 421.668 219.341C423.968 222.121 423.917 226.847 423.544 261.558C423.518 264.026 423.49 266.645 423.461 269.426L423.232 311.936L415.97 318.698C400.489 332.952 346.701 344.188 280.928 347.205C199.403 350.95 106.101 334.97 91.8687 314.703C89.1013 310.687 88.3522 299.93 88.3522 265.93C88.3522 228.913 88.8516 221.672 92.5761 217.677C98.3815 211.185 100.878 212.184 100.878 220.424L100.899 220.403ZM226.952 33.5911C208.184 34.3401 194.18 34.0904 194.929 32.842C196.906 29.596 189.686 30.345 168.441 35.5886C132.652 44.5983 110.887 57.6032 100.899 76.6214C97.3827 82.8429 93.6165 87.0877 91.8895 86.3594C87.1245 84.6116 82.6509 111.37 83.8993 134.633C85.1062 159.124 94.3656 179.869 108.889 191.397C120.875 200.885 146.406 208.147 175.661 209.874C196.656 211.123 198.383 211.643 193.14 214.639C187.896 217.656 189.415 217.885 208.392 218.384C308.685 220.153 366.468 213.911 401.987 197.14C411.136 192.931 416.795 190.47 420.294 186.228C426.153 179.125 425.957 167.027 425.957 133.364C425.957 89.8551 425.5 85.86 420.984 79.8674C414.763 71.8565 395.495 64.5946 371.712 60.8492C347.741 57.083 335.444 57.8529 354.733 61.5982C390.938 69.089 406.003 76.6214 406.003 86.8588C406.003 94.3496 393.997 101.112 370.484 107.105C349.239 112.348 272.209 114.866 252.712 110.85C226.952 105.357 216.445 90.1048 228.451 74.8528C233.174 68.8601 246.428 63.5958 266.945 59.351C273.458 57.8529 273.728 57.6032 269.442 54.586C265.197 51.34 265.197 51.0903 270.212 48.3437C273.187 46.8664 286.442 44.3486 300.216 42.8505C313.7 41.3523 324.978 39.8334 325.477 39.334C327.953 36.8371 254.731 32.5715 226.952 33.5911Z" fill="white"/>
</g>
</svg>
