<svg width="512" height="512" viewBox="0 0 512 512" fill="none" xmlns="http://www.w3.org/2000/svg">
<g id="Type=Outline">
<path id="Shape" d="M475.875 49.6269L475.865 49.6151C463.872 34.9991 447.938 23.7516 430.334 17.3812C418.139 13.0678 405.561 11 392.576 11H392.544H392.507H392.463H392.414H392.359H392.297H392.23H392.157H392.078H391.994H391.903H391.807H391.705H391.597H391.484H391.365H391.24H391.11H390.974H390.832H390.685H390.533H390.375H390.211H390.042H389.868H389.688H389.503H389.312H389.116H388.915H388.708H388.496H388.279H388.057H387.83H387.597H387.359H387.116H386.868H386.615H386.357H386.093H385.825H385.552H385.274H384.991H384.703H384.41H384.112H383.809H383.502H383.19H382.873H382.551H382.224H381.893H381.557H381.217H380.872H380.522H380.167H379.809H379.445H379.077H378.705H378.328H377.946H377.561H377.17H376.776H376.377H375.974H375.566H375.154H374.738H374.318H373.894H373.465H373.032H372.595H372.154H371.709H371.26H370.806H370.349H369.888H369.423H368.953H368.48H368.003H367.522H367.038H366.549H366.057H365.561H365.061H364.557H364.05H363.539H363.024H362.506H361.984H361.458H360.929H360.396H359.86H359.32H358.777H358.231H357.681H357.127H356.57H356.01H355.447H354.88H354.31H353.737H353.16H352.58H351.997H351.411H350.822H350.229H349.634H349.035H348.434H347.829H347.221H346.611H345.997H345.38H344.761H344.139H343.513H342.885H342.255H341.621H340.985H340.345H339.704H339.059H338.412H337.762H337.11H336.454H335.797H335.137H334.474H333.809H333.141H332.471H331.798H331.123H330.446H329.766H329.084H328.399H327.713H327.024H326.332H325.639H324.943H324.245H323.546H322.843H322.139H321.433H320.725H320.014H319.302H318.587H317.871H317.153H316.433H315.71H314.987H314.261H313.533H312.804H312.073H311.34H310.605H309.869H309.131H308.391H307.65H306.907H306.162H305.416H304.668H303.919H303.169H302.417H301.663H300.908H300.152H299.394H298.635H297.875H297.113H296.35H295.586H294.82H294.054H293.286H292.517H291.747H290.975H290.203H289.43H288.655H287.88H287.103H286.326H285.548H284.768H283.988H283.207H282.425H281.642H280.859H280.075H279.29H278.504H277.717H276.93H276.142H275.354H274.564H273.775H272.984H272.194H271.402H270.61H269.818H269.025H268.232H267.439H266.645H265.85H265.056H264.261H263.465H262.67H261.874H261.078H260.282H259.486H258.689H257.893H257.096H256.299H255.502H254.705H253.909H253.112H252.315H251.518H250.722H249.925H249.129H248.333H247.537H246.741H245.945H245.15H244.355H243.56H242.766H241.972H241.178H240.385H239.592H238.8H238.008H237.217H236.426H235.635H234.846H234.056H233.268H232.48H231.693H230.906H230.12H229.335H228.55H227.767H226.984H226.202H225.421H224.641H223.861H223.083H222.305H221.529H220.753H219.979H219.205H218.433H217.661H216.891H216.122H215.354H214.587H213.821H213.057H212.294H211.532H210.772H210.012H209.255H208.498H207.743H206.989H206.237H205.486H204.737H203.989H203.243H202.498H201.755H201.014H200.274H199.535H198.799H198.064H197.331H196.6H195.87H195.142H194.416H193.692H192.97H192.249H191.531H190.814H190.1H189.387H188.676H187.968H187.261H186.557H185.854H185.154H184.456H183.76H183.066H182.375H181.686H180.999H180.314H179.632H178.952H178.274H177.599H176.926H176.255H175.587H174.922H174.259H173.598H172.94H172.285H171.632H170.982H170.334H169.69H169.047H168.408H167.771H167.137H166.506H165.878H165.252H164.63H164.01H163.393H162.779H162.168H161.56H160.955H160.353H159.754H159.158H158.566H157.976H157.389H156.806H156.226H155.649H155.075H154.505H153.937H153.374H152.813H152.256H151.702H151.152H150.605H150.061H149.521H148.984H148.451H147.922H147.396H146.873H146.355H145.84H145.328H144.82H144.316H143.816H143.319H142.826H142.337H141.852H141.371H140.894H140.42H139.95H139.485H139.023H138.565H138.111H137.662H137.216H136.775H136.337H135.904H135.475H135.05H134.629H134.212H133.8H133.392H132.988H132.589H132.194H131.803H131.417H131.035H130.658H130.285H129.916H129.552H129.193H128.838H128.488H128.142H127.801H127.464H127.133H126.806H126.483H126.166H125.853H125.545H125.242H124.943H124.65H124.361H124.078H123.799H123.525H123.256H122.993H122.734H122.48H122.231H121.988H121.75H121.516H121.288H121.065H120.848H120.635H120.428H120.226H120.03H119.838H119.652H119.472H119.297H119.127H118.963H118.804H118.651H118.503H118.361H118.225H118.094H117.968H117.849H117.735H117.626H117.524H117.427H117.336H117.25H117.171H117.097H117.029H116.967H116.911H116.861H116.817H116.779H116.747H116.721H116.7L475.875 49.6269ZM475.875 49.6269L475.884 49.6386M475.875 49.6269L475.884 49.6386M475.884 49.6386C488.061 64.2507 496.122 82.2471 498.931 100.979L498.935 101.002M475.884 49.6386L498.935 101.002M498.935 101.002L498.939 101.026M498.935 101.002L498.939 101.026M498.939 101.026C500.053 107.896 500.249 114.832 500.249 121.981V122.022V122.068V122.12V122.177V122.239V122.306V122.378V122.455V122.537V122.624V122.716V122.813V122.915V123.022V123.134V123.25V123.372V123.498V123.63V123.766V123.906V124.052V124.202V124.357V124.517V124.681V124.85V125.024V125.202V125.385V125.573V125.765V125.962V126.163V126.368V126.578V126.793V127.012V127.236V127.463V127.696V127.932V128.173V128.418V128.668V128.922V129.18V129.442V129.709V129.979V130.254V130.533V130.817V131.104V131.395V131.691V131.99V132.294V132.602V132.913V133.229V133.548V133.872V134.199V134.531V134.866V135.205V135.548V135.895V136.245V136.599V136.957V137.319V137.685V138.054V138.427V138.803V139.184V139.567V139.955V140.346V140.74V141.138V141.54V141.945V142.353V142.765V143.181V143.6V144.022V144.448V144.877V145.309V145.745V146.184V146.626V147.071V147.52V147.972V148.427V148.885V149.347V149.811V150.279V150.75V151.224V151.701V152.181V152.664V153.15V153.639V154.131V154.625V155.123V155.624V156.127V156.634V157.143V157.655V158.17V158.687V159.208V159.731V160.257V160.785V161.316V161.85V162.387V162.926V163.467V164.012V164.558V165.108V165.66V166.214V166.771V167.33V167.892V168.456V169.022V169.591V170.162V170.736V171.312V171.89V172.471V173.053V173.638V174.225V174.815V175.406V176V176.596V177.193V177.794V178.396V179V179.606V180.214V180.824V181.436V182.05V182.666V183.284V183.904V184.526V185.149V185.775V186.402V187.031V187.662V188.294V188.928V189.564V190.202V190.841V191.482V192.125V192.769V193.415V194.062V194.711V195.361V196.013V196.667V197.321V197.978V198.635V199.295V199.955V200.617V201.28V201.945V202.611V203.278V203.947V204.616V205.287V205.96V206.633V207.307V207.983V208.66V209.338V210.017V210.697V211.378V212.06V212.743V213.427V214.113V214.799V215.486V216.173V216.862V217.552V218.242V218.934V219.626V220.319V221.012V221.707V222.402V223.098V223.794V224.492V225.19V225.888V226.587V227.287V227.987V228.688V229.389V230.091V230.793V231.496V232.199V232.903V233.607V234.311V235.016V235.721V236.427V237.133V237.839V238.545V239.252V239.959V240.666V241.373V242.08V242.788V243.495V244.203V244.911V245.619V246.327V247.035V247.743V248.45V249.158V249.866V250.574V251.282V251.989V252.697V253.404V254.111V254.818V255.525V256.231V256.937V257.643V258.349V259.054V259.759V260.464V261.168V261.872V262.575V263.278V263.981V264.683V265.384V266.085V266.786V267.486V268.185V268.884V269.582V270.279V270.976V271.672V272.368V273.063V273.757V274.45V275.142V275.834V276.525V277.215V277.904V278.592V279.28V279.966V280.652V281.336V282.02V282.703V283.384V284.065V284.744V285.422V286.1V286.776V287.451V288.125V288.798V289.469V290.139V290.808V291.476V292.143V292.808V293.472V294.134V294.795V295.455V296.114V296.77V297.426V298.08V298.733V299.384V300.033V300.681V301.328V301.973V302.616V303.258V303.898V304.536V305.173V305.808V306.441V307.072V307.702V308.33V308.956V309.581V310.203V310.824V311.442V312.059V312.674V313.287V313.898V314.507V315.114V315.719V316.322V316.923V317.522V318.119V318.713V319.306V319.896V320.484V321.07V321.654V322.235V322.814V323.391V323.966V324.538V325.108V325.675V326.241V326.803V327.364V327.921V328.477V329.03V329.58V330.128V330.674V331.216V331.757V332.294V332.829V333.361V333.891V334.418V334.942V335.464V335.983V336.499V337.012V337.523V338.03V338.535V339.037V339.536V340.032V340.525V341.015V341.503V341.987V342.468V342.947V343.422V343.894V344.363V344.829V345.292V345.751V346.208V346.661V347.111V347.558V348.002V348.442V348.879V349.313V349.744V350.171V350.595V351.015V351.432V351.845V352.255V352.662V353.065V353.465V353.861V354.253V354.642V355.028V355.409V355.788V356.162V356.533V356.9V357.263V357.623V357.979V358.331V358.68V359.024V359.365V359.702V360.035V360.364V360.689V361.01V361.328V361.641V361.95V362.256V362.557V362.854V363.148V363.437V363.722V364.003V364.279V364.552V364.82V365.085V365.344V365.6V365.852V366.099V366.341V366.58V366.814V367.044V367.269V367.49V367.707V367.919V368.126V368.329V368.528V368.722V368.912V369.097V369.277V369.453V369.624V369.79V369.952V370.109V370.261V370.409V370.552V370.69V370.823V370.952V371.075V371.194V371.308V371.417V371.521V371.621V371.715V371.804V371.888V371.968V372.042V372.111V372.175V372.212V372.248V372.285V372.321V372.358V372.394V372.431V372.467V372.504V372.54V372.577V372.613V372.65V372.686V372.723V372.759V372.796V372.832V372.869V372.906V372.942V372.979V373.015V373.052V373.088V373.125V373.162V373.198V373.235V373.271V373.308V373.345V373.381V373.418V373.454V373.491V373.528V373.564V373.601V373.638V373.674V373.711V373.748V373.784V373.821V373.858V373.894V373.931V373.968V374.004V374.041V374.078V374.114V374.151V374.188V374.224V374.261V374.298V374.335V374.371V374.408V374.445V374.481V374.518V374.555V374.592V374.628V374.665V374.702V374.739V374.775V374.812V374.849V374.886V374.922V374.959V374.996V375.033V375.069V375.106V375.143V375.18V375.217V375.253V375.29V375.327V375.364V375.4V375.437V375.474V375.511V375.548V375.585V375.621V375.658V375.695V375.732V375.769V375.806V375.842V375.879V375.916V375.953V375.99V376.027V376.063V376.1V376.137V376.174V376.211V376.248V376.285V376.321V376.358V376.395V376.432V376.469V376.506V376.543V376.58V376.616V376.653V376.69V376.727V376.764V376.801V376.838V376.875V376.912V376.949V376.986V377.022V377.059V377.096V377.133V377.17V377.207V377.244V377.281V377.318V377.355V377.392V377.429V377.466V377.502V377.539V377.576V377.613V377.65V377.687V377.724V377.761V377.798V377.835V377.872V377.909V377.946V377.983V378.02V378.057V378.094V378.131V378.168V378.205V378.242V378.279V378.316V378.353V378.39V378.427V378.464V378.501V378.538V378.575V378.612V378.648V378.685V378.723V378.759V378.796V378.833V378.87V378.907V378.944V378.982V379.018V379.056V379.092V379.13V379.167V379.204V379.241V379.278V379.315V379.352V379.389V379.426V379.463V379.5V379.537V379.574V379.611V379.648V379.685V379.722V379.759V379.796V379.833V379.87V379.907V379.944V379.981V380.018V380.055V380.092V380.129V380.166V380.203V380.24V380.277V380.314V380.351V380.388V380.425V380.462V380.5V380.537V380.574V380.611V380.648V380.685V380.722V380.759V380.796V380.833V380.87V380.907V380.944V380.981V381.018V381.055V381.092V381.129V381.166V381.203V381.24V381.277V381.315V381.352V381.389V381.426V381.463V381.5V381.537V381.574V381.611V381.648V381.685V381.722V381.759V381.796V381.833V381.87V381.907V381.944V381.981V382.018V382.055V382.093V382.13V382.167V382.204V382.241V382.278V382.315V382.352V382.389V382.426V382.463V382.5V382.537V382.574V382.611V382.648V382.685V382.722V382.759V382.796V382.833V382.87V382.907V382.945V382.982V383.019V383.056V383.093V383.13V383.167V383.204V383.241V383.278V383.315V383.352V383.389V383.426V383.463V383.5V383.537V383.574V383.611V383.648V383.685V383.722V383.759V383.796V383.833V383.87V383.907V383.944V383.981V384.018V384.055V384.092V384.129V384.166V384.203V384.24V384.277V384.314V384.351V384.388V384.425V384.462V384.499V384.536V384.573V384.61V384.647V384.684V384.721V384.758V384.795V384.832V384.869V384.906V384.943V384.98V385.017V385.054V385.091V385.128V385.165V385.202V385.239V385.276V385.313V385.35V385.387V385.424V385.461V385.498V385.535V385.572V385.608V385.645V385.682V385.719V385.756V385.793V385.83V385.867V385.904V385.941V385.978V386.015V386.052V386.089V386.126V386.162V386.199V386.236V386.273V386.31V386.347V386.384V386.421V386.458V386.495V386.532V386.568V386.605V386.642V386.679V386.716V386.753V386.79V386.827V386.863V386.9V386.937V386.974V387.011V387.048V387.085V387.122V387.158V387.195V387.232V387.269V387.306V387.343V387.379V387.416V387.453V387.49V387.527V387.564V387.6V387.637V387.674V387.711V387.748V387.785V387.821V387.858V387.895V387.932V387.969V388.005V388.042V388.079V388.116V388.152V388.189V388.226V388.263V388.299V388.336V388.373V388.41V388.447V388.483V388.52V388.557V388.594V388.63V388.667V388.704V388.74V388.777V388.814V388.851V388.887V388.924V388.961V388.997V389.034V389.071V389.108V389.144V389.181V389.218V389.254V389.291V389.328V389.364V389.401V389.438V389.474V389.511V389.548V389.584V389.621V389.657V389.694V389.731V389.767V389.804V389.841V389.877V389.914V389.95V389.987V390.024V390.06V390.097V390.133V390.17V390.207V390.243V390.28V390.316V390.353V390.389V390.426V390.462V390.499V390.536V390.572V390.609V390.645V390.682V390.718V390.755V390.791V390.828V390.864V390.901V390.937V390.974V391.01V391.047C500.249 399.515 499.86 407.946 498.194 415.908L498.191 415.922M498.939 101.026L498.191 415.922M498.191 415.922L498.188 415.936M498.191 415.922L498.188 415.936M498.188 415.936C494.44 434.489 485.627 451.928 472.881 465.986L472.871 465.997M498.188 415.936L472.871 465.997M472.871 465.997L472.861 466.008M472.871 465.997L472.861 466.008M472.861 466.008C460.318 480.049 443.82 490.553 426.011 496.179M472.861 466.008L426.011 496.179M21.458 441.034L21.4613 441.041C29.7117 457.917 42.4705 472.554 58.0374 483.058C73.9594 493.734 92.9011 499.926 112.027 500.864M21.458 441.034L112.027 500.864M21.458 441.034L21.4547 441.027M21.458 441.034L21.4547 441.027M112.027 500.864C112.029 500.865 112.031 500.865 112.032 500.865M112.027 500.864L111.837 504.86M112.032 500.865L55.8055 486.377C72.3424 497.467 91.9922 503.887 111.837 504.86M112.032 500.865L111.837 504.86M112.032 500.865L475.844 468.673C462.809 483.265 445.689 494.16 427.206 499.996M112.032 500.865C112.033 500.865 112.034 500.865 112.034 500.865C112.058 500.865 112.132 500.867 112.283 500.869C112.463 500.872 112.709 500.875 113.022 500.878C113.647 500.883 114.518 500.889 115.622 500.894C117.829 500.905 120.951 500.915 124.858 500.924C132.673 500.943 143.62 500.959 156.661 500.972C182.742 501 217.188 501.018 251.673 501.03C320.641 501.054 389.755 501.054 392.381 501.054C403.894 501.054 415.159 499.545 426.011 496.179M112.032 500.865L426.011 496.179M111.837 504.86C115.922 505.054 387.128 505.054 392.381 505.054C404.249 505.054 415.922 503.498 427.206 499.996M427.206 499.996L426.021 496.176C426.017 496.177 426.014 496.178 426.011 496.179M427.206 499.996L426.002 496.182C426.005 496.181 426.008 496.18 426.011 496.179M21.4547 441.027C14.3481 426.627 10.7782 410.506 10.7782 394.354V394.328V394.296V394.259V394.215V394.165V394.109V394.047V393.98V393.906V393.827V393.742V393.651V393.554V393.451V393.343V393.229V393.11V392.984V392.853V392.717V392.575V392.427V392.274V392.115V391.951V391.781V391.606V391.425V391.239V391.048V390.851V390.649V390.441V390.229V390.011V389.787V389.559V389.326V389.087V388.843V388.594V388.34V388.081V387.816V387.547V387.273V386.994V386.71V386.421V386.127V385.828V385.524V385.215V384.902V384.584V384.261V383.933V383.601V383.264V382.922V382.576V382.225V381.869V381.509V381.144V380.775V380.401V380.023V379.641V379.253V378.862V378.466V378.066V377.661V377.252V376.839V376.422V376V375.574V375.144V374.71V374.271V373.829V373.382V372.932V372.477V372.018V371.555V371.088V370.618V370.143V369.664V369.182V368.696V368.206V367.712V367.214V366.712V366.207V365.698V365.185V364.669V364.149V363.625V363.098V362.567V362.033V361.495V360.954V360.409V359.861V359.309V358.754V358.195V357.633V357.068V356.499V355.927V355.352V354.774V354.192V353.607V353.019V352.428V351.834V351.237V350.636V350.033V349.426V348.816V348.204V347.588V346.97V346.349V345.724V345.097V344.467V343.835V343.199V342.561V341.92V341.276V340.629V339.98V339.328V338.674V338.017V337.357V336.695V336.03V335.363V334.693V334.021V333.346V332.669V331.99V331.308V330.624V329.937V329.248V328.557V327.864V327.168V326.471V325.771V325.069V324.364V323.658V322.95V322.239V321.527V320.812V320.096V319.377V318.657V317.934V317.21V316.484V315.756V315.026V314.295V313.561V312.826V312.089V311.351V310.611V309.869V309.125V308.38V307.633V306.885V306.135V305.384V304.631V303.877V303.121V302.364V301.605V300.845V300.084V299.321V298.557V297.792V297.026V296.258V295.489V294.719V293.948V293.175V292.402V291.627V290.852V290.075V289.297V288.519V287.739V286.958V286.177V285.394V284.611V283.827V283.042V282.256V281.469V280.682V279.894V279.105V278.316V277.525V276.735V275.943V275.151V274.359V273.566V272.772V271.978V271.183V270.388V269.593V268.797V268.001V267.204V266.407V265.61V264.812V264.014V263.216V262.418V261.62V260.821V260.022V259.223V258.424V257.625V256.826V256.027V255.228V254.429V253.63V252.831V252.032V251.233V250.435V249.636V248.838V248.04V247.242V246.445V245.647V244.851V244.054V243.258V242.462V241.666V240.871V240.077V239.283V238.489V237.696V236.903V236.111V235.32V234.529V233.739V232.949V232.161V231.372V230.585V229.799V229.013V228.228V227.444V226.66V225.878V225.096V224.316V223.536V222.757V221.979V221.203V220.427V219.653V218.879V218.107V217.335V216.565V215.796V215.029V214.262V213.497V212.733V211.971V211.209V210.449V209.691V208.934V208.178V207.424V206.671V205.919V205.169V204.421V203.674V202.929V202.186V201.444V200.704V199.965V199.228V198.493V197.76V197.028V196.298V195.57V194.844V194.12V193.398V192.677V191.959V191.242V190.528V189.815V189.105V188.396V187.69V186.986V186.284V185.584V184.886V184.191V183.497V182.806V182.117V181.431V180.747V180.065V179.385V178.708V178.034V177.361V176.692V176.024V175.36V174.697V174.038V173.381V172.726V172.074V171.425V170.779V170.135V169.494V168.855V168.22V167.587V166.957V166.33V165.706V165.084V164.466V163.851V163.238V162.628V162.022V161.418V160.818V160.221V159.626V159.035V158.447V157.862V157.281V156.702V156.127V155.555V154.987V154.421V153.859V153.301V152.746V152.194V151.646V151.101V150.559V150.021V149.487V148.956V148.429V147.905V147.385V146.869V146.356V145.847V145.342V144.841V144.343V143.849V143.359V142.872V142.39V141.911V141.437V140.966V140.499V140.036V139.578V139.123V138.672V138.226V137.783V137.345V136.91V136.48V136.054V135.633V135.215V134.802V134.393V133.989V133.588V133.193V132.801V132.414V132.031V131.653V131.279V130.91V130.545V130.185V129.83V129.479V129.132V128.791V128.454V128.121V127.794V127.471V127.152V126.839V126.531V126.227V125.928V125.634V125.345V125.061V124.782V124.507V124.238V123.974V123.715V123.461V123.212V122.968V122.729V122.495V122.267V122.044V121.826V121.613V121.406V121.204V121.007V120.816V120.63V120.449V120.274V120.104V119.94V119.781V119.628V119.48V119.338V119.201V119.07V118.945V118.825V118.711V118.603V118.501V118.404V118.313V118.228V118.148V118.075V118.007V117.945V117.89V117.84V117.796V117.758V117.726V117.7V117.653M21.4547 441.027L10.7782 117.653M10.7782 117.653L10.7771 117.606M10.7782 117.653L10.7771 117.606M10.7771 117.606L6.77823 117.7L10.7771 117.606Z" stroke="white" stroke-width="8"/>
<path id="Shape_2" fill-rule="evenodd" clip-rule="evenodd" d="M398.607 315.755C398.607 315.755 445.3 368.479 426.428 414.588C426.428 414.588 407.167 382.292 374.872 382.292C343.743 382.292 325.455 414.588 262.809 414.588C123.315 414.588 57.3618 298.051 57.3618 298.051C183.043 380.735 268.84 322.175 268.84 322.175C212.226 289.296 91.7976 132.097 91.7976 132.097C196.661 221.397 241.992 244.938 241.992 244.938C214.949 222.564 139.074 113.226 139.074 113.226C201.277 172.256 320.397 260.502 320.397 260.502C354.638 165.56 287.517 80.9299 287.517 80.9299C451.72 192.603 398.607 315.755 398.607 315.755Z" fill="white"/>
</g>
</svg>
