<svg width="512" height="512" viewBox="0 0 512 512" fill="none" xmlns="http://www.w3.org/2000/svg">
<g id="Type=Flat">
<g id="Union">
<path d="M305.738 6.53676C305.738 6.53676 357.598 58.4134 256.552 138.185C193.895 187.668 217.092 220.703 239.36 252.415C245.888 261.713 252.337 270.897 256.519 280.348C209.221 237.674 174.511 200.108 197.797 165.145C209.169 148.069 227.239 133.92 245.521 119.605C282.186 90.897 319.701 61.5227 305.738 6.53676Z" fill="white"/>
<path d="M279.008 245.183C303.083 272.901 272.683 297.843 272.683 297.843C272.683 297.843 333.812 266.286 305.738 226.769C304.612 225.187 303.497 223.638 302.403 222.118C278.029 188.262 264.086 168.896 368.264 108.477C368.264 108.477 197.401 151.151 279.008 245.183Z" fill="white"/>
<path d="M189.637 357.091C156.967 353.712 178.359 337.877 178.359 337.877C93.8181 365.936 225.395 397.755 343.526 363.212C330.97 358.785 322.985 350.689 322.985 350.689C265.251 361.806 231.886 361.45 189.637 357.091Z" fill="white"/>
<path d="M203.871 407.366C171.225 403.613 190.298 392.521 190.298 392.521C113.555 413.964 236.976 458.264 334.681 416.39C318.678 410.167 307.219 402.982 307.219 402.982C263.635 411.231 243.421 411.878 203.871 407.366Z" fill="white"/>
<path d="M392.687 453.566C422.345 444.569 408.231 432.939 408.231 432.939C459.903 456.247 295.973 503.1 96.764 470.794C23.7172 458.953 131.922 417.607 151.727 431.559C151.727 431.559 145.466 431.116 134.51 433.492C124.005 435.748 90.6095 446.499 108.418 454.246C157.958 475.809 336.29 470.65 392.687 453.566Z" fill="white"/>
<path d="M199.47 281.26C199.47 281.26 108.758 302.805 167.346 310.629C192.084 313.941 241.398 313.192 287.333 309.343C324.873 306.176 362.568 299.443 362.568 299.443C362.568 299.443 349.331 305.112 339.754 311.652C247.639 335.878 69.6885 324.608 120.918 299.827C164.243 278.884 199.47 281.26 199.47 281.26Z" fill="white"/>
<path d="M382.319 283.098C412.539 276.798 455.834 323.558 362.194 372.217C361.761 373.376 360.312 374.67 360.312 374.67C485.373 341.793 439.395 258.785 379.611 279.803C374.359 281.667 371.61 285.975 371.61 285.975C371.61 285.975 374.912 284.639 382.319 283.098Z" fill="white"/>
<path d="M439.847 458.349C436.578 500.879 298.553 509.825 208.671 504.071C150.035 500.311 138.283 490.914 138.111 490.777L138.109 490.775C194.228 500.028 288.848 501.713 365.564 487.276C433.564 474.472 439.847 458.349 439.847 458.349Z" fill="white"/>
</g>
</g>
</svg>
