<svg width="512" height="512" viewBox="0 0 512 512" fill="none" xmlns="http://www.w3.org/2000/svg">
<g id="Type=Outline">
<path id="Shape" fill-rule="evenodd" clip-rule="evenodd" d="M253.882 7.14117C127.257 7.14118 135.164 62.0537 135.164 62.0537L135.305 118.942H256.141V136.023H87.3099C87.3099 136.023 6.28223 126.834 6.28223 254.6C6.28222 382.367 77.005 377.836 77.005 377.836H119.213V318.547C119.213 318.547 116.938 247.824 188.806 247.824H308.654C308.654 247.824 375.989 248.913 375.989 182.748V73.3467C375.989 73.3467 386.212 7.14117 253.882 7.14117ZM187.253 45.3964C199.276 45.3964 208.993 55.1133 208.993 67.1355C208.993 79.1578 199.276 88.8747 187.253 88.8747C175.231 88.8747 165.514 79.1578 165.514 67.1355C165.514 55.1133 175.231 45.3964 187.253 45.3964Z" fill="white"/>
<g id="Shape_2">
<mask id="path-2-inside-1_324_543" fill="white">
<path fill-rule="evenodd" clip-rule="evenodd" d="M257.479 503.34C384.104 503.34 376.197 448.428 376.197 448.428L376.056 391.539H255.22V374.458H424.051C424.051 374.458 505.079 383.648 505.079 255.881C505.079 128.115 434.356 132.646 434.356 132.646H392.148V191.934C392.148 191.934 394.424 262.657 322.555 262.657H202.707C202.707 262.657 135.373 261.569 135.373 327.733V437.135C135.373 437.135 125.149 503.34 257.479 503.34ZM324.108 465.085C312.085 465.085 302.369 455.368 302.369 443.346C302.369 431.324 312.085 421.607 324.108 421.607C336.13 421.607 345.847 431.324 345.847 443.346C345.847 455.368 336.13 465.085 324.108 465.085Z"/>
</mask>
<path d="M376.197 448.428L368.197 448.448L368.198 449.011L368.279 449.568L376.197 448.428ZM376.056 391.539L384.056 391.519L384.036 383.539H376.056V391.539ZM255.22 391.539H247.22V399.539H255.22V391.539ZM255.22 374.458V366.458H247.22V374.458H255.22ZM424.051 374.458L424.953 366.509L424.503 366.458H424.051V374.458ZM505.079 255.881H497.079H505.079ZM434.356 132.646V140.646H434.612L434.868 140.629L434.356 132.646ZM392.148 132.646V124.646H384.148V132.646H392.148ZM392.148 191.934H384.148V192.063L384.153 192.192L392.148 191.934ZM202.707 262.657L202.578 270.656L202.643 270.657H202.707V262.657ZM135.373 437.135L143.279 438.356L143.373 437.749V437.135H135.373ZM345.847 443.346H337.847V443.346L345.847 443.346ZM257.479 511.34C321.645 511.34 353.902 497.476 369.954 481.566C378.026 473.566 381.679 465.342 383.232 458.877C384.002 455.676 384.246 452.953 384.288 450.953C384.308 449.952 384.278 449.128 384.237 448.509C384.216 448.199 384.192 447.94 384.171 447.736C384.16 447.634 384.149 447.545 384.14 447.47C384.135 447.433 384.131 447.399 384.127 447.368C384.124 447.353 384.122 447.339 384.121 447.325C384.12 447.319 384.118 447.309 384.118 447.306C384.117 447.297 384.115 447.288 376.197 448.428C368.279 449.568 368.277 449.56 368.276 449.551C368.276 449.549 368.275 449.541 368.274 449.536C368.273 449.525 368.271 449.516 368.27 449.508C368.268 449.491 368.266 449.476 368.265 449.465C368.262 449.443 368.261 449.433 368.261 449.435C368.261 449.438 368.267 449.488 368.273 449.58C368.285 449.766 368.302 450.121 368.291 450.622C368.27 451.624 368.143 453.192 367.675 455.139C366.755 458.97 364.47 464.474 358.691 470.202C347.041 481.749 319.938 495.34 257.479 495.34V511.34ZM384.197 448.408L384.056 391.519L368.056 391.559L368.197 448.448L384.197 448.408ZM376.056 383.539H255.22V399.539H376.056V383.539ZM263.22 391.539V374.458H247.22V391.539H263.22ZM255.22 382.458H424.051V366.458H255.22V382.458ZM424.051 374.458C423.15 382.407 423.156 382.408 423.163 382.409C423.165 382.409 423.172 382.41 423.178 382.411C423.188 382.412 423.2 382.413 423.213 382.414C423.24 382.417 423.271 382.421 423.307 382.424C423.379 382.431 423.471 382.44 423.583 382.45C423.805 382.47 424.104 382.493 424.475 382.516C425.217 382.561 426.248 382.603 427.527 382.604C430.081 382.606 433.648 382.444 437.894 381.81C446.375 380.543 457.703 377.366 469.041 369.713C492.161 354.107 513.079 321.514 513.079 255.881H497.079C497.079 318.015 477.483 344.71 460.089 356.451C451.17 362.472 442.241 364.983 435.53 365.986C432.179 366.486 429.416 366.605 427.539 366.604C426.603 366.603 425.892 366.572 425.447 366.545C425.225 366.532 425.069 366.519 424.985 366.512C424.943 366.508 424.919 366.506 424.913 366.505C424.91 366.505 424.912 366.505 424.919 366.506C424.922 366.506 424.927 366.506 424.932 366.507C424.935 366.507 424.94 366.508 424.942 366.508C424.947 366.509 424.953 366.509 424.051 374.458ZM513.079 255.881C513.079 190.586 494.973 157.102 474.86 140.223C464.907 131.87 454.877 127.957 447.252 126.15C443.446 125.248 440.235 124.868 437.914 124.718C436.752 124.642 435.809 124.624 435.12 124.626C434.775 124.628 434.494 124.634 434.28 124.642C434.173 124.645 434.083 124.649 434.01 124.653C433.974 124.655 433.942 124.656 433.914 124.658C433.9 124.659 433.888 124.66 433.876 124.66C433.87 124.661 433.862 124.661 433.86 124.661C433.852 124.662 433.845 124.662 434.356 132.646C434.868 140.629 434.861 140.63 434.854 140.63C434.853 140.63 434.846 140.631 434.843 140.631C434.835 140.631 434.829 140.632 434.824 140.632C434.814 140.633 434.807 140.633 434.805 140.633C434.8 140.633 434.811 140.633 434.838 140.632C434.892 140.63 435.008 140.627 435.181 140.626C435.528 140.625 436.104 140.634 436.876 140.684C438.423 140.784 440.737 141.049 443.562 141.719C449.197 143.054 456.848 145.994 464.575 152.479C479.824 165.276 497.079 193.411 497.079 255.881H513.079ZM434.356 124.646H392.148V140.646H434.356V124.646ZM384.148 132.646V191.934H400.148V132.646H384.148ZM392.148 191.934C384.153 192.192 384.152 192.188 384.152 192.184C384.152 192.184 384.152 192.18 384.152 192.179C384.152 192.176 384.152 192.174 384.152 192.173C384.152 192.17 384.152 192.172 384.152 192.178C384.152 192.191 384.153 192.219 384.154 192.263C384.155 192.352 384.157 192.504 384.156 192.715C384.156 193.137 384.147 193.793 384.112 194.65C384.043 196.367 383.87 198.871 383.455 201.897C382.619 207.99 380.83 215.977 377.079 223.858C373.346 231.701 367.743 239.299 359.295 244.961C350.887 250.596 339.152 254.657 322.555 254.657V270.657C341.893 270.657 356.823 265.878 368.202 258.252C379.54 250.654 386.844 240.572 391.526 230.734C396.19 220.934 398.323 211.24 399.307 204.072C399.801 200.468 400.012 197.447 400.099 195.296C400.143 194.219 400.155 193.356 400.156 192.742C400.157 192.435 400.155 192.19 400.152 192.011C400.15 191.922 400.149 191.849 400.147 191.793C400.147 191.765 400.146 191.741 400.146 191.722C400.145 191.712 400.145 191.704 400.145 191.696C400.145 191.693 400.145 191.688 400.145 191.686C400.144 191.681 400.144 191.677 392.148 191.934ZM322.555 254.657H202.707V270.657H322.555V254.657ZM202.707 262.657C202.837 254.658 202.833 254.658 202.828 254.658C202.826 254.658 202.822 254.658 202.818 254.658C202.811 254.658 202.803 254.658 202.794 254.658C202.775 254.657 202.752 254.657 202.726 254.657C202.672 254.656 202.602 254.656 202.517 254.656C202.346 254.656 202.112 254.657 201.819 254.662C201.233 254.672 200.409 254.696 199.383 254.751C197.332 254.862 194.453 255.1 191.018 255.607C184.189 256.615 174.95 258.718 165.607 263.158C156.234 267.611 146.585 274.501 139.297 285.127C131.969 295.808 127.373 309.765 127.373 327.733H143.373C143.373 312.62 147.193 301.901 152.491 294.177C157.827 286.398 165.013 281.154 172.473 277.609C179.964 274.05 187.559 272.291 193.355 271.435C196.232 271.01 198.614 270.816 200.246 270.728C201.06 270.684 201.684 270.667 202.084 270.66C202.284 270.657 202.428 270.656 202.512 270.656C202.554 270.656 202.58 270.656 202.592 270.656C202.597 270.656 202.599 270.656 202.597 270.656C202.596 270.656 202.594 270.656 202.59 270.656C202.589 270.656 202.586 270.656 202.585 270.656C202.582 270.656 202.578 270.656 202.707 262.657ZM127.373 327.733V437.135H143.373V327.733H127.373ZM135.373 437.135C127.466 435.914 127.465 435.922 127.464 435.93C127.463 435.933 127.462 435.941 127.461 435.947C127.459 435.959 127.457 435.973 127.455 435.987C127.451 436.015 127.446 436.048 127.441 436.085C127.431 436.158 127.419 436.249 127.406 436.355C127.38 436.567 127.35 436.843 127.321 437.179C127.262 437.85 127.205 438.764 127.192 439.886C127.166 442.127 127.313 445.222 127.968 448.887C129.283 456.25 132.651 465.885 140.691 475.401C156.852 494.527 190.209 511.34 257.479 511.34V495.34C192.419 495.34 164.723 479.052 152.913 465.074C146.968 458.039 144.621 451.123 143.718 446.072C143.264 443.53 143.175 441.453 143.191 440.073C143.199 439.385 143.233 438.876 143.259 438.578C143.272 438.429 143.284 438.334 143.288 438.295C143.291 438.276 143.291 438.271 143.29 438.281C143.289 438.286 143.288 438.294 143.286 438.307C143.285 438.313 143.284 438.32 143.283 438.328C143.282 438.333 143.281 438.339 143.281 438.341C143.28 438.348 143.279 438.356 135.373 437.135ZM324.108 457.085C316.504 457.085 310.369 450.95 310.369 443.346H294.369C294.369 459.787 307.667 473.085 324.108 473.085V457.085ZM310.369 443.346C310.369 435.742 316.504 429.607 324.108 429.607V413.607C307.667 413.607 294.369 426.906 294.369 443.346H310.369ZM324.108 429.607C331.712 429.607 337.847 435.742 337.847 443.346H353.847C353.847 426.906 340.548 413.607 324.108 413.607V429.607ZM337.847 443.346C337.847 450.95 331.712 457.085 324.108 457.085V473.085C340.548 473.085 353.847 459.787 353.847 443.346L337.847 443.346Z" fill="white" mask="url(#path-2-inside-1_324_543)"/>
</g>
</g>
</svg>
