<svg width="512" height="512" viewBox="0 0 512 512" fill="none" xmlns="http://www.w3.org/2000/svg">
<g clip-path="url(#clip0_330_420)">
<path fill-rule="evenodd" clip-rule="evenodd" d="M171.333 0C124.229 0 86 38.2293 86 85.3333C86 132.437 124.229 170.667 171.333 170.667C124.229 170.667 86 208.896 86 256C86 303.104 124.229 341.333 171.333 341.333C124.229 341.333 86 379.563 86 426.667C86 473.771 124.229 512 171.333 512C218.437 512 256.667 473.771 256.667 426.667L256.667 256C256.667 303.104 294.896 341.333 342 341.333C389.104 341.333 427.333 303.104 427.333 256C427.333 208.896 389.104 170.667 342 170.667C389.104 170.667 427.333 132.437 427.333 85.3333C427.333 38.2293 389.104 0 342 0H171.333ZM342 170.667H256.667L256.667 256C256.667 208.896 294.896 170.667 342 170.667Z" fill="white"/>
</g>
<defs>
<clipPath id="clip0_330_420">
<rect width="512" height="512" fill="white"/>
</clipPath>
</defs>
</svg>
