<svg width="500" height="453" viewBox="0 0 500 453" fill="none" xmlns="http://www.w3.org/2000/svg">
<path d="M169.114 371L158.591 374.206L160.966 382H169.114V371ZM102.636 152.818V141.818H87.7855L92.1139 156.024L102.636 152.818ZM137.864 152.818L148.45 149.83L146.188 141.818H137.864V152.818ZM185.023 319.864L174.437 322.852L176.698 330.864H185.023V319.864ZM187.295 319.864V330.864H195.647L197.891 322.819L187.295 319.864ZM233.886 152.818V141.818H225.535L223.291 149.863L233.886 152.818ZM269.682 152.818L280.284 149.887L278.053 141.818H269.682V152.818ZM315.705 319.295L305.102 322.226L307.333 330.295H315.705V319.295ZM317.977 319.295V330.295H326.294L328.561 322.294L317.977 319.295ZM365.136 152.818V141.818H356.82L354.553 149.82L365.136 152.818ZM400.364 152.818L410.886 156.024L415.214 141.818H400.364V152.818ZM333.886 371V382H342.034L344.409 374.206L333.886 371ZM300.932 371L290.352 374.012L292.627 382H300.932V371ZM253.205 203.386L263.784 200.374L261.51 192.386H253.205V203.386ZM249.795 203.386V192.386H241.49L239.216 200.374L249.795 203.386ZM202.068 371V382H210.373L212.648 374.012L202.068 371ZM179.636 367.794L113.159 149.612L92.1139 156.024L158.591 374.206L179.636 367.794ZM102.636 163.818H137.864V141.818H102.636V163.818ZM127.277 155.807L174.437 322.852L195.609 316.875L148.45 149.83L127.277 155.807ZM185.023 330.864H187.295V308.864H185.023V330.864ZM197.891 322.819L244.482 155.773L223.291 149.863L176.7 316.908L197.891 322.819ZM233.886 163.818H269.682V141.818H233.886V163.818ZM259.08 155.749L305.102 322.226L326.307 316.364L280.284 149.887L259.08 155.749ZM315.705 330.295H317.977V308.295H315.705V330.295ZM328.561 322.294L375.72 155.816L354.553 149.82L307.394 316.297L328.561 322.294ZM365.136 163.818H400.364V141.818H365.136V163.818ZM389.841 149.612L323.364 367.794L344.409 374.206L410.886 156.024L389.841 149.612ZM333.886 360H300.932V382H333.886V360ZM311.511 367.988L263.784 200.374L242.625 206.399L290.352 374.012L311.511 367.988ZM253.205 192.386H249.795V214.386H253.205V192.386ZM239.216 200.374L191.489 367.988L212.648 374.012L260.375 206.399L239.216 200.374ZM202.068 360H169.114V382H202.068V360Z" fill="white"/>
<path d="M381.463 119.06L376.636 120.362L377.633 124.06H381.463V119.06ZM377.912 111.176L373.765 113.969L373.778 113.989L373.792 114.009L377.912 111.176ZM364.347 101.659L362.953 106.461L362.988 106.471L363.024 106.481L364.347 101.659ZM336.364 105.494L333.608 101.322L333.599 101.328L333.59 101.334L336.364 105.494ZM324.503 120.409L329.095 122.387L329.1 122.375L324.503 120.409ZM324.361 167.923L328.987 166.026L324.361 167.923ZM336.08 182.98L338.88 178.838H338.88L336.08 182.98ZM371.023 185.04L373.142 189.568L373.153 189.563L373.163 189.558L371.023 185.04ZM381.25 176.02L376.958 173.455L381.25 176.02ZM384.73 162.312L385.324 157.348L379.73 156.679V162.312H384.73ZM391.264 163.094V168.094L391.858 158.129L391.264 163.094ZM355.895 163.094H350.895V168.094H355.895V163.094ZM355.895 137.455V132.455H350.895V137.455H355.895ZM418.608 137.455H423.608V132.455H418.608V137.455ZM410.298 190.153L406.005 187.591L406 187.599L405.995 187.607L410.298 190.153ZM387.571 211.531L385.283 207.086L385.274 207.09L387.571 211.531ZM317.827 209.969L320.31 205.629L317.827 209.969ZM293.253 184.259L288.827 186.584L288.831 186.592L293.253 184.259ZM289.773 112.739L294.439 114.534L294.443 114.526L289.773 112.739ZM304.616 89.1591L301.068 85.6366L301.061 85.6432L301.055 85.6498L304.616 89.1591ZM326.776 74.5284L324.946 69.8753L324.937 69.8788L326.776 74.5284ZM377.486 73.179L375.905 77.9224L375.914 77.9255L377.486 73.179ZM396.804 83.4062L393.709 87.3332L393.717 87.3396L393.725 87.3459L396.804 83.4062ZM410.511 99.1023L406.183 101.605L410.511 99.1023ZM417.045 119.06V124.06H422.668L422.011 118.475L417.045 119.06ZM386.29 117.757C385.356 114.293 383.951 111.135 382.032 108.343L373.792 114.009C374.998 115.763 375.961 117.861 376.636 120.362L386.29 117.757ZM382.059 108.383C380.16 105.564 377.818 103.162 375.049 101.201L369.269 109.361C371.046 110.62 372.539 112.148 373.765 113.969L382.059 108.383ZM375.049 101.201C372.259 99.2246 369.114 97.7817 365.669 96.8371L363.024 106.481C365.45 107.146 367.514 108.118 369.269 109.361L375.049 101.201ZM365.741 96.8574C362.292 95.856 358.596 95.3807 354.688 95.3807V105.381C357.787 105.381 360.53 105.758 362.953 106.461L365.741 96.8574ZM354.688 95.3807C346.795 95.3807 339.697 97.2999 333.608 101.322L339.119 109.666C343.352 106.871 348.471 105.381 354.688 105.381V95.3807ZM333.59 101.334C327.548 105.362 323.02 111.159 319.905 118.444L329.1 122.375C331.573 116.591 334.952 112.445 339.137 109.655L333.59 101.334ZM319.911 118.431C316.778 125.706 315.312 134.303 315.312 144.06H325.312C325.312 135.256 326.641 128.086 329.095 122.387L319.911 118.431ZM315.312 144.06C315.312 153.846 316.725 162.481 319.735 169.82L328.987 166.026C326.599 160.202 325.312 152.929 325.312 144.06H315.312ZM319.735 169.82C322.749 177.171 327.23 183.034 333.28 187.123L338.88 178.838C334.702 176.014 331.37 171.838 328.987 166.026L319.735 169.82ZM333.28 187.123C339.361 191.233 346.583 193.165 354.688 193.165V183.165C348.209 183.165 343.025 181.64 338.88 178.838L333.28 187.123ZM354.688 193.165C361.642 193.165 367.856 192.043 373.142 189.568L368.903 180.511C365.288 182.203 360.612 183.165 354.688 183.165V193.165ZM373.163 189.558C378.463 187.048 382.663 183.402 385.542 178.585L376.958 173.455C375.196 176.403 372.579 178.77 368.882 180.521L373.163 189.558ZM385.542 178.585C388.396 173.809 389.73 168.323 389.73 162.312H379.73C379.73 166.813 378.744 170.466 376.958 173.455L385.542 178.585ZM384.137 167.277L390.671 168.058L391.858 158.129L385.324 157.348L384.137 167.277ZM391.264 158.094H355.895V168.094H391.264V158.094ZM360.895 163.094V137.455H350.895V163.094H360.895ZM355.895 142.455H418.608V132.455H355.895V142.455ZM413.608 137.455V156.702H423.608V137.455H413.608ZM413.608 156.702C413.608 169.005 410.996 179.23 406.005 187.591L414.592 192.716C420.68 182.516 423.608 170.44 423.608 156.702H413.608ZM405.995 187.607C400.986 196.071 394.112 202.541 385.283 207.086L389.859 215.977C400.349 210.578 408.626 202.797 414.601 192.7L405.995 187.607ZM385.274 207.09C376.475 211.641 366.229 213.989 354.403 213.989V223.989C367.578 223.989 379.444 221.364 389.868 215.972L385.274 207.09ZM354.403 213.989C341.273 213.989 329.961 211.15 320.31 205.629L315.344 214.309C326.716 220.814 339.788 223.989 354.403 223.989V213.989ZM320.31 205.629C310.655 200.106 303.121 192.247 297.675 181.925L288.831 186.592C295.127 198.524 303.976 207.805 315.344 214.309L320.31 205.629ZM297.679 181.933C292.258 171.615 289.446 159.189 289.446 144.486H279.446C279.446 160.464 282.506 174.554 288.827 186.584L297.679 181.933ZM289.446 144.486C289.446 133.045 291.149 123.089 294.439 114.534L285.106 110.944C281.294 120.854 279.446 132.063 279.446 144.486H289.446ZM294.443 114.526C297.772 105.825 302.364 98.5694 308.178 92.6683L301.055 85.6498C294.18 92.6276 288.876 101.091 285.103 110.952L294.443 114.526ZM308.165 92.6815C314.074 86.7284 320.88 82.2369 328.614 79.178L324.937 69.8788C315.91 73.4487 307.943 78.711 301.068 85.6366L308.165 92.6815ZM328.605 79.1815C336.41 76.1124 344.852 74.5568 353.977 74.5568V64.5568C343.69 64.5568 333.997 66.3156 324.946 69.8753L328.605 79.1815ZM353.977 74.5568C361.923 74.5568 369.22 75.6942 375.905 77.9224L379.067 68.4356C371.263 65.8342 362.887 64.5568 353.977 64.5568V74.5568ZM375.914 77.9255C382.698 80.1722 388.613 83.3171 393.709 87.3332L399.899 79.4793C393.82 74.6886 386.857 71.0153 379.058 68.4325L375.914 77.9255ZM393.725 87.3459C398.866 91.3634 403.007 96.1109 406.183 101.605L414.84 96.5998C411.009 89.9724 406.011 84.2559 399.883 79.4666L393.725 87.3459ZM406.183 101.605C409.331 107.051 411.304 113.047 412.08 119.644L422.011 118.475C421.083 110.584 418.699 103.274 414.84 96.5998L406.183 101.605ZM417.045 114.06H381.463V124.06H417.045V114.06Z" fill="#C89DD2"/>
<path d="M97.8073 152.5L144.307 148.5L189.307 314.5L170.307 377L97.8073 152.5Z" fill="white"/>
<path d="M230 144L275.5 146.5L321.5 308L301.5 375L230 144Z" fill="white"/>
<path d="M286 141H317L323.5 174L335 186.5L354 191.5L381 183.5L387.5 171L385.5 159.5H359.5L361 142.5H414V174L404.5 191.5L392.5 205L375 214H335L323.5 209L309 200.5L296 183.5L286 141Z" fill="#C89DD2"/>
<rect x="89" y="97" width="186" height="34" fill="#C89DD2"/>
</svg>
