<svg width="10000" height="10000" viewBox="0 0 10000 10000" fill="none" xmlns="http://www.w3.org/2000/svg">
<g clip-path="url(#clip0_2115_431)">
<rect width="10000" height="10000" fill="white"/>
<path d="M312.473 641H937.527L1250 98.9999L937.527 -443H312.473L0 98.9999L312.473 641Z" stroke="#A0A3BD" stroke-opacity="0.25" stroke-width="10" stroke-miterlimit="10"/>
<path d="M312.473 4977H937.527L1250 4435L937.527 3893H312.473L0 4435L312.473 4977Z" stroke="#A0A3BD" stroke-opacity="0.25" stroke-width="10" stroke-miterlimit="10"/>
<path d="M312.473 2809H937.527L1250 2267L937.527 1725H312.473L0 2267L312.473 2809Z" stroke="#A0A3BD" stroke-opacity="0.25" stroke-width="10" stroke-miterlimit="10"/>
<path d="M312.473 7145H937.527L1250 6603L937.527 6061H312.473L0 6603L312.473 7145Z" stroke="#A0A3BD" stroke-opacity="0.25" stroke-width="10" stroke-miterlimit="10"/>
<path d="M312.473 9313H937.527L1250 8771L937.527 8229H312.473L0 8771L312.473 9313Z" stroke="#A0A3BD" stroke-opacity="0.25" stroke-width="10" stroke-miterlimit="10"/>
<path d="M312.473 1725H937.527L1250 1183L937.527 641H312.473L0 1183L312.473 1725Z" stroke="#A0A3BD" stroke-opacity="0.25" stroke-width="10" stroke-miterlimit="10"/>
<path d="M312.473 6061H937.527L1250 5519L937.527 4977H312.473L0 5519L312.473 6061Z" stroke="#A0A3BD" stroke-opacity="0.25" stroke-width="10" stroke-miterlimit="10"/>
<path d="M312.473 3893H937.527L1250 3351L937.527 2809H312.473L0 3351L312.473 3893Z" stroke="#A0A3BD" stroke-opacity="0.25" stroke-width="10" stroke-miterlimit="10"/>
<path d="M312.473 8229H937.527L1250 7687L937.527 7145H312.473L0 7687L312.473 8229Z" stroke="#A0A3BD" stroke-opacity="0.25" stroke-width="10" stroke-miterlimit="10"/>
<path d="M312.473 10397H937.527L1250 9855L937.527 9313H312.473L0 9855L312.473 10397Z" stroke="#A0A3BD" stroke-opacity="0.25" stroke-width="10" stroke-miterlimit="10"/>
<path d="M5312.47 641H5937.53L6250 98.9999L5937.53 -443H5312.47L5000 98.9999L5312.47 641Z" stroke="#A0A3BD" stroke-opacity="0.25" stroke-width="10" stroke-miterlimit="10"/>
<path d="M5312.47 4977H5937.53L6250 4435L5937.53 3893H5312.47L5000 4435L5312.47 4977Z" stroke="#A0A3BD" stroke-opacity="0.25" stroke-width="10" stroke-miterlimit="10"/>
<path d="M5312.47 2809H5937.53L6250 2267L5937.53 1725H5312.47L5000 2267L5312.47 2809Z" stroke="#A0A3BD" stroke-opacity="0.25" stroke-width="10" stroke-miterlimit="10"/>
<path d="M5312.47 7145H5937.53L6250 6603L5937.53 6061H5312.47L5000 6603L5312.47 7145Z" stroke="#A0A3BD" stroke-opacity="0.25" stroke-width="10" stroke-miterlimit="10"/>
<path d="M5312.47 9313H5937.53L6250 8771L5937.53 8229H5312.47L5000 8771L5312.47 9313Z" stroke="#A0A3BD" stroke-opacity="0.25" stroke-width="10" stroke-miterlimit="10"/>
<path d="M5312.47 1725H5937.53L6250 1183L5937.53 641H5312.47L5000 1183L5312.47 1725Z" stroke="#A0A3BD" stroke-opacity="0.25" stroke-width="10" stroke-miterlimit="10"/>
<path d="M5312.47 6061H5937.53L6250 5519L5937.53 4977H5312.47L5000 5519L5312.47 6061Z" stroke="#A0A3BD" stroke-opacity="0.25" stroke-width="10" stroke-miterlimit="10"/>
<path d="M5312.47 3893H5937.53L6250 3351L5937.53 2809H5312.47L5000 3351L5312.47 3893Z" stroke="#A0A3BD" stroke-opacity="0.25" stroke-width="10" stroke-miterlimit="10"/>
<path d="M5312.47 8229H5937.53L6250 7687L5937.53 7145H5312.47L5000 7687L5312.47 8229Z" stroke="#A0A3BD" stroke-opacity="0.25" stroke-width="10" stroke-miterlimit="10"/>
<path d="M5312.47 10397H5937.53L6250 9855L5937.53 9313H5312.47L5000 9855L5312.47 10397Z" stroke="#A0A3BD" stroke-opacity="0.25" stroke-width="10" stroke-miterlimit="10"/>
<path d="M2812.47 641H3437.53L3750 98.9999L3437.53 -443H2812.47L2500 98.9999L2812.47 641Z" stroke="#A0A3BD" stroke-opacity="0.25" stroke-width="10" stroke-miterlimit="10"/>
<path d="M2812.47 4977H3437.53L3750 4435L3437.53 3893H2812.47L2500 4435L2812.47 4977Z" stroke="#A0A3BD" stroke-opacity="0.25" stroke-width="10" stroke-miterlimit="10"/>
<path d="M2812.47 2809H3437.53L3750 2267L3437.53 1725H2812.47L2500 2267L2812.47 2809Z" stroke="#A0A3BD" stroke-opacity="0.25" stroke-width="10" stroke-miterlimit="10"/>
<path d="M2812.47 7145H3437.53L3750 6603L3437.53 6061H2812.47L2500 6603L2812.47 7145Z" stroke="#A0A3BD" stroke-opacity="0.25" stroke-width="10" stroke-miterlimit="10"/>
<path d="M2812.47 9313H3437.53L3750 8771L3437.53 8229H2812.47L2500 8771L2812.47 9313Z" stroke="#A0A3BD" stroke-opacity="0.25" stroke-width="10" stroke-miterlimit="10"/>
<path d="M2812.47 1725H3437.53L3750 1183L3437.53 641H2812.47L2500 1183L2812.47 1725Z" stroke="#A0A3BD" stroke-opacity="0.25" stroke-width="10" stroke-miterlimit="10"/>
<path d="M2812.47 6061H3437.53L3750 5519L3437.53 4977H2812.47L2500 5519L2812.47 6061Z" stroke="#A0A3BD" stroke-opacity="0.25" stroke-width="10" stroke-miterlimit="10"/>
<path d="M2812.47 3893H3437.53L3750 3351L3437.53 2809H2812.47L2500 3351L2812.47 3893Z" stroke="#A0A3BD" stroke-opacity="0.25" stroke-width="10" stroke-miterlimit="10"/>
<path d="M2812.47 8229H3437.53L3750 7687L3437.53 7145H2812.47L2500 7687L2812.47 8229Z" stroke="#A0A3BD" stroke-opacity="0.25" stroke-width="10" stroke-miterlimit="10"/>
<path d="M2812.47 10397H3437.53L3750 9855L3437.53 9313H2812.47L2500 9855L2812.47 10397Z" stroke="#A0A3BD" stroke-opacity="0.25" stroke-width="10" stroke-miterlimit="10"/>
<path d="M7812.47 641H8437.53L8750 98.9999L8437.53 -443H7812.47L7500 98.9999L7812.47 641Z" stroke="#A0A3BD" stroke-opacity="0.25" stroke-width="10" stroke-miterlimit="10"/>
<path d="M7812.47 4977H8437.53L8750 4435L8437.53 3893H7812.47L7500 4435L7812.47 4977Z" stroke="#A0A3BD" stroke-opacity="0.25" stroke-width="10" stroke-miterlimit="10"/>
<path d="M7812.47 2809H8437.53L8750 2267L8437.53 1725H7812.47L7500 2267L7812.47 2809Z" stroke="#A0A3BD" stroke-opacity="0.25" stroke-width="10" stroke-miterlimit="10"/>
<path d="M7812.47 7145H8437.53L8750 6603L8437.53 6061H7812.47L7500 6603L7812.47 7145Z" stroke="#A0A3BD" stroke-opacity="0.25" stroke-width="10" stroke-miterlimit="10"/>
<path d="M7812.47 9313H8437.53L8750 8771L8437.53 8229H7812.47L7500 8771L7812.47 9313Z" stroke="#A0A3BD" stroke-opacity="0.25" stroke-width="10" stroke-miterlimit="10"/>
<path d="M7812.47 1725H8437.53L8750 1183L8437.53 641H7812.47L7500 1183L7812.47 1725Z" stroke="#A0A3BD" stroke-opacity="0.25" stroke-width="10" stroke-miterlimit="10"/>
<path d="M7812.47 6061H8437.53L8750 5519L8437.53 4977H7812.47L7500 5519L7812.47 6061Z" stroke="#A0A3BD" stroke-opacity="0.25" stroke-width="10" stroke-miterlimit="10"/>
<path d="M7812.47 3893H8437.53L8750 3351L8437.53 2809H7812.47L7500 3351L7812.47 3893Z" stroke="#A0A3BD" stroke-opacity="0.25" stroke-width="10" stroke-miterlimit="10"/>
<path d="M7812.47 8229H8437.53L8750 7687L8437.53 7145H7812.47L7500 7687L7812.47 8229Z" stroke="#A0A3BD" stroke-opacity="0.25" stroke-width="10" stroke-miterlimit="10"/>
<path d="M7812.47 10397H8437.53L8750 9855L8437.53 9313H7812.47L7500 9855L7812.47 10397Z" stroke="#A0A3BD" stroke-opacity="0.25" stroke-width="10" stroke-miterlimit="10"/>
<path d="M1562.47 641H2187.53L2500 98.9999L2187.53 -443H1562.47L1250 98.9999L1562.47 641Z" stroke="#A0A3BD" stroke-opacity="0.25" stroke-width="10" stroke-miterlimit="10"/>
<path d="M1562.47 4977H2187.53L2500 4435L2187.53 3893H1562.47L1250 4435L1562.47 4977Z" stroke="#A0A3BD" stroke-opacity="0.25" stroke-width="10" stroke-miterlimit="10"/>
<path d="M1562.47 2809H2187.53L2500 2267L2187.53 1725H1562.47L1250 2267L1562.47 2809Z" stroke="#A0A3BD" stroke-opacity="0.25" stroke-width="10" stroke-miterlimit="10"/>
<path d="M1562.47 7145H2187.53L2500 6603L2187.53 6061H1562.47L1250 6603L1562.47 7145Z" stroke="#A0A3BD" stroke-opacity="0.25" stroke-width="10" stroke-miterlimit="10"/>
<path d="M1562.47 9313H2187.53L2500 8771L2187.53 8229H1562.47L1250 8771L1562.47 9313Z" stroke="#A0A3BD" stroke-opacity="0.25" stroke-width="10" stroke-miterlimit="10"/>
<path d="M1562.47 1725H2187.53L2500 1183L2187.53 641H1562.47L1250 1183L1562.47 1725Z" stroke="#A0A3BD" stroke-opacity="0.25" stroke-width="10" stroke-miterlimit="10"/>
<path d="M1562.47 6061H2187.53L2500 5519L2187.53 4977H1562.47L1250 5519L1562.47 6061Z" stroke="#A0A3BD" stroke-opacity="0.25" stroke-width="10" stroke-miterlimit="10"/>
<path d="M1562.47 3893H2187.53L2500 3351L2187.53 2809H1562.47L1250 3351L1562.47 3893Z" stroke="#A0A3BD" stroke-opacity="0.25" stroke-width="10" stroke-miterlimit="10"/>
<path d="M1562.47 8229H2187.53L2500 7687L2187.53 7145H1562.47L1250 7687L1562.47 8229Z" stroke="#A0A3BD" stroke-opacity="0.25" stroke-width="10" stroke-miterlimit="10"/>
<path d="M1562.47 10397H2187.53L2500 9855L2187.53 9313H1562.47L1250 9855L1562.47 10397Z" stroke="#A0A3BD" stroke-opacity="0.25" stroke-width="10" stroke-miterlimit="10"/>
<path d="M6562.47 641H7187.53L7500 98.9999L7187.53 -443H6562.47L6250 98.9999L6562.47 641Z" stroke="#A0A3BD" stroke-opacity="0.25" stroke-width="10" stroke-miterlimit="10"/>
<path d="M6562.47 4977H7187.53L7500 4435L7187.53 3893H6562.47L6250 4435L6562.47 4977Z" stroke="#A0A3BD" stroke-opacity="0.25" stroke-width="10" stroke-miterlimit="10"/>
<path d="M6562.47 2809H7187.53L7500 2267L7187.53 1725H6562.47L6250 2267L6562.47 2809Z" stroke="#A0A3BD" stroke-opacity="0.25" stroke-width="10" stroke-miterlimit="10"/>
<path d="M6562.47 7145H7187.53L7500 6603L7187.53 6061H6562.47L6250 6603L6562.47 7145Z" stroke="#A0A3BD" stroke-opacity="0.25" stroke-width="10" stroke-miterlimit="10"/>
<path d="M6562.47 9313H7187.53L7500 8771L7187.53 8229H6562.47L6250 8771L6562.47 9313Z" stroke="#A0A3BD" stroke-opacity="0.25" stroke-width="10" stroke-miterlimit="10"/>
<path d="M6562.47 1725H7187.53L7500 1183L7187.53 641H6562.47L6250 1183L6562.47 1725Z" stroke="#A0A3BD" stroke-opacity="0.25" stroke-width="10" stroke-miterlimit="10"/>
<path d="M6562.47 6061H7187.53L7500 5519L7187.53 4977H6562.47L6250 5519L6562.47 6061Z" stroke="#A0A3BD" stroke-opacity="0.25" stroke-width="10" stroke-miterlimit="10"/>
<path d="M6562.47 3893H7187.53L7500 3351L7187.53 2809H6562.47L6250 3351L6562.47 3893Z" stroke="#A0A3BD" stroke-opacity="0.25" stroke-width="10" stroke-miterlimit="10"/>
<path d="M6562.47 8229H7187.53L7500 7687L7187.53 7145H6562.47L6250 7687L6562.47 8229Z" stroke="#A0A3BD" stroke-opacity="0.25" stroke-width="10" stroke-miterlimit="10"/>
<path d="M6562.47 10397H7187.53L7500 9855L7187.53 9313H6562.47L6250 9855L6562.47 10397Z" stroke="#A0A3BD" stroke-opacity="0.25" stroke-width="10" stroke-miterlimit="10"/>
<path d="M4062.47 641H4687.53L5000 98.9999L4687.53 -443H4062.47L3750 98.9999L4062.47 641Z" stroke="#A0A3BD" stroke-opacity="0.25" stroke-width="10" stroke-miterlimit="10"/>
<path d="M4062.47 4977H4687.53L5000 4435L4687.53 3893H4062.47L3750 4435L4062.47 4977Z" stroke="#A0A3BD" stroke-opacity="0.25" stroke-width="10" stroke-miterlimit="10"/>
<path d="M4062.47 2809H4687.53L5000 2267L4687.53 1725H4062.47L3750 2267L4062.47 2809Z" stroke="#A0A3BD" stroke-opacity="0.25" stroke-width="10" stroke-miterlimit="10"/>
<path d="M4062.47 7145H4687.53L5000 6603L4687.53 6061H4062.47L3750 6603L4062.47 7145Z" stroke="#A0A3BD" stroke-opacity="0.25" stroke-width="10" stroke-miterlimit="10"/>
<path d="M4062.47 9313H4687.53L5000 8771L4687.53 8229H4062.47L3750 8771L4062.47 9313Z" stroke="#A0A3BD" stroke-opacity="0.25" stroke-width="10" stroke-miterlimit="10"/>
<path d="M4062.47 1725H4687.53L5000 1183L4687.53 641H4062.47L3750 1183L4062.47 1725Z" stroke="#A0A3BD" stroke-opacity="0.25" stroke-width="10" stroke-miterlimit="10"/>
<path d="M4062.47 6061H4687.53L5000 5519L4687.53 4977H4062.47L3750 5519L4062.47 6061Z" stroke="#A0A3BD" stroke-opacity="0.25" stroke-width="10" stroke-miterlimit="10"/>
<path d="M4062.47 3893H4687.53L5000 3351L4687.53 2809H4062.47L3750 3351L4062.47 3893Z" stroke="#A0A3BD" stroke-opacity="0.25" stroke-width="10" stroke-miterlimit="10"/>
<path d="M4062.47 8229H4687.53L5000 7687L4687.53 7145H4062.47L3750 7687L4062.47 8229Z" stroke="#A0A3BD" stroke-opacity="0.25" stroke-width="10" stroke-miterlimit="10"/>
<path d="M4062.47 10397H4687.53L5000 9855L4687.53 9313H4062.47L3750 9855L4062.47 10397Z" stroke="#A0A3BD" stroke-opacity="0.25" stroke-width="10" stroke-miterlimit="10"/>
<path d="M9062.47 641H9687.53L10000 98.9999L9687.53 -443H9062.47L8750 98.9999L9062.47 641Z" stroke="#A0A3BD" stroke-opacity="0.25" stroke-width="10" stroke-miterlimit="10"/>
<path d="M9062.47 4977H9687.53L10000 4435L9687.53 3893H9062.47L8750 4435L9062.47 4977Z" stroke="#A0A3BD" stroke-opacity="0.25" stroke-width="10" stroke-miterlimit="10"/>
<path d="M9062.47 2809H9687.53L10000 2267L9687.53 1725H9062.47L8750 2267L9062.47 2809Z" stroke="#A0A3BD" stroke-opacity="0.25" stroke-width="10" stroke-miterlimit="10"/>
<path d="M9062.47 7145H9687.53L10000 6603L9687.53 6061H9062.47L8750 6603L9062.47 7145Z" stroke="#A0A3BD" stroke-opacity="0.25" stroke-width="10" stroke-miterlimit="10"/>
<path d="M9062.47 9313H9687.53L10000 8771L9687.53 8229H9062.47L8750 8771L9062.47 9313Z" stroke="#A0A3BD" stroke-opacity="0.25" stroke-width="10" stroke-miterlimit="10"/>
<path d="M9062.47 1725H9687.53L10000 1183L9687.53 641H9062.47L8750 1183L9062.47 1725Z" stroke="#A0A3BD" stroke-opacity="0.25" stroke-width="10" stroke-miterlimit="10"/>
<path d="M9062.47 6061H9687.53L10000 5519L9687.53 4977H9062.47L8750 5519L9062.47 6061Z" stroke="#A0A3BD" stroke-opacity="0.25" stroke-width="10" stroke-miterlimit="10"/>
<path d="M9062.47 3893H9687.53L10000 3351L9687.53 2809H9062.47L8750 3351L9062.47 3893Z" stroke="#A0A3BD" stroke-opacity="0.25" stroke-width="10" stroke-miterlimit="10"/>
<path d="M9062.47 8229H9687.53L10000 7687L9687.53 7145H9062.47L8750 7687L9062.47 8229Z" stroke="#A0A3BD" stroke-opacity="0.25" stroke-width="10" stroke-miterlimit="10"/>
<path d="M9062.47 10397H9687.53L10000 9855L9687.53 9313H9062.47L8750 9855L9062.47 10397Z" stroke="#A0A3BD" stroke-opacity="0.25" stroke-width="10" stroke-miterlimit="10"/>
</g>
<defs>
<clipPath id="clip0_2115_431">
<rect width="10000" height="10000" fill="white"/>
</clipPath>
</defs>
</svg>
