<svg width="10000" height="10000" viewBox="0 0 10000 10000" fill="none" xmlns="http://www.w3.org/2000/svg">
<g clip-path="url(#clip0_2104_291)">
<rect width="10000" height="10000" fill="white"/>
<path d="M-4408.43 2078.77C-3412.25 1537.12 -3100.44 2110.59 -2104.26 1568.94C-1108.08 1027.29 -1419.88 453.826 -423.987 -87.6658C571.909 -629.157 884.002 -55.8478 1880.18 -597.495C2876.37 -1139.14 2564.56 -1712.61 3560.74 -2254.25C4556.92 -2795.9 4868.73 -2222.44 5865.2 -2764.24C6861.67 -3306.04 6549.58 -3879.35 7545.76 -4421" stroke="#A0A3BD" stroke-opacity="0.4" stroke-width="5" stroke-miterlimit="10"/>
<path d="M-1912.71 6668.82C-916.529 6127.17 -604.722 6700.64 391.46 6158.99C1387.64 5617.34 1075.84 5043.88 2071.73 4502.39C3067.63 3960.9 3379.72 4534.2 4375.9 3992.56C5372.09 3450.91 5060.28 2877.45 6056.46 2335.8C7052.64 1794.15 7364.45 2367.62 8360.92 1825.81C9357.39 1284.01 9045.29 710.7 10041.5 169.053" stroke="#A0A3BD" stroke-opacity="0.4" stroke-width="5" stroke-miterlimit="10"/>
<path d="M-3160.57 4373.79C-2164.39 3832.15 -1852.58 4405.61 -856.399 3863.97C139.783 3322.32 -172.023 2748.85 823.872 2207.36C1819.77 1665.87 2131.86 2239.18 3128.04 1697.53C4124.23 1155.88 3812.42 582.42 4808.6 40.7726C5804.78 -500.875 6116.59 72.5904 7113.06 -469.213C8109.53 -1011.02 7797.44 -1584.33 8793.62 -2125.97" stroke="#A0A3BD" stroke-opacity="0.4" stroke-width="5" stroke-miterlimit="10"/>
<path d="M-664.852 8963.85C331.331 8422.2 643.771 8996.83 1639.95 8455.18C2636.14 7913.54 2323.7 7338.91 3319.59 6797.41C4315.49 6255.92 4628.21 6830.4 5624.4 6288.75C6620.58 5747.1 6308.14 5172.47 7304.32 4630.83C8300.5 4089.18 8612.94 4663.81 9609.41 4122.01C10605.9 3580.2 10293.2 3005.73 11289.3 2464.08" stroke="#A0A3BD" stroke-opacity="0.4" stroke-width="5" stroke-miterlimit="10"/>
<path d="M1051.35 12120.2C2047.53 11578.6 2359.34 12152.1 3355.52 11610.4C4351.7 11068.8 4039.9 10495.3 5035.79 9953.81C6031.69 9412.32 6343.78 9985.62 7339.97 9443.98C8336.15 8902.33 8024.34 8328.87 9020.52 7787.22C10016.7 7245.57 10328.5 7819.04 11325 7277.23C12321.4 6735.43 12009.4 6162.12 13005.5 5620.47" stroke="#A0A3BD" stroke-opacity="0.4" stroke-width="5" stroke-miterlimit="10"/>
<path d="M-3784.82 3225.7C-2788.63 2684.05 -2476.19 3258.68 -1480.01 2717.04C-483.829 2175.39 -796.269 1600.76 199.626 1059.27C1195.52 517.774 1508.25 1092.25 2504.43 550.602C3500.61 8.95483 3188.17 -565.676 4184.36 -1107.32C5180.54 -1648.97 5492.98 -1074.34 6489.45 -1616.14C7485.92 -2157.95 7173.19 -2732.42 8169.37 -3274.07" stroke="#A0A3BD" stroke-opacity="0.4" stroke-width="5" stroke-miterlimit="10"/>
<path d="M-1288.46 7816.92C-292.281 7275.27 19.5257 7848.73 1015.71 7307.09C2011.89 6765.44 1700.08 6191.97 2695.98 5650.48C3691.88 5108.99 4003.97 5682.3 5000.15 5140.65C5996.33 4599.01 5684.53 4025.54 6680.71 3483.89C7676.89 2942.25 7988.7 3515.71 8985.17 2973.91C9981.64 2432.11 9669.54 1858.8 10665.7 1317.15" stroke="#A0A3BD" stroke-opacity="0.4" stroke-width="5" stroke-miterlimit="10"/>
<path d="M-2536.33 5521.89C-1540.14 4980.24 -1228.34 5553.71 -232.155 5012.06C764.027 4470.41 452.221 3896.95 1448.12 3355.46C2444.01 2813.97 2756.11 3387.28 3752.29 2845.63C4748.47 2303.98 4436.66 1730.52 5432.85 1188.87C6429.03 647.221 6740.83 1220.69 7737.3 678.883C8733.77 137.08 8421.68 -436.23 9417.86 -977.877" stroke="#A0A3BD" stroke-opacity="0.4" stroke-width="5" stroke-miterlimit="10"/>
<path d="M-40.6035 10111.9C955.579 9570.3 1267.39 10143.8 2263.57 9602.12C3259.75 9060.47 2947.94 8487 3943.84 7945.51C4939.73 7404.02 5251.83 7977.33 6248.01 7435.68C7244.19 6894.04 6932.39 6320.57 7928.57 5778.92C8924.75 5237.28 9236.56 5810.74 10233 5268.94C11229.5 4727.13 10917.4 4153.83 11913.6 3612.18" stroke="#A0A3BD" stroke-opacity="0.4" stroke-width="5" stroke-miterlimit="10"/>
<path d="M1674.96 13267.2C2671.15 12725.5 2983.59 13300.2 3979.77 12758.5C4975.95 12216.9 4663.51 11642.2 5659.41 11100.7C6655.3 10559.2 6968.03 11133.7 7964.21 10592.1C8960.39 10050.4 8647.95 9475.79 9644.14 8934.15C10640.3 8392.5 10952.8 8967.13 11949.2 8425.33C12945.7 7883.52 12633 7309.05 13629.2 6767.4" stroke="#A0A3BD" stroke-opacity="0.4" stroke-width="5" stroke-miterlimit="10"/>
<path d="M-4096.62 2652.23C-3100.44 2110.59 -2788.64 2684.05 -1792.45 2142.4C-796.272 1600.76 -1108.08 1027.29 -112.182 485.799C883.713 -55.6924 1195.81 517.617 2191.99 -24.0303C3188.17 -565.678 2876.36 -1139.14 3872.55 -1680.79C4868.73 -2222.44 5180.54 -1648.97 6177 -2190.78C7173.47 -2732.58 6861.38 -3305.89 7857.56 -3847.54" stroke="#A0A3BD" stroke-opacity="0.4" stroke-width="5" stroke-miterlimit="10"/>
<path d="M-1600.9 7242.29C-604.722 6700.64 -292.282 7275.27 703.9 6733.62C1700.08 6191.97 1387.64 5617.34 2383.54 5075.85C3379.43 4534.36 3692.16 5108.84 4688.34 4567.19C5684.53 4025.54 5372.08 3450.91 6368.27 2909.26C7364.45 2367.62 7676.89 2942.25 8673.36 2400.44C9669.83 1858.64 9357.1 1284.16 10353.3 742.518" stroke="#A0A3BD" stroke-opacity="0.4" stroke-width="5" stroke-miterlimit="10"/>
<path d="M-2848.76 4947.26C-1852.58 4405.61 -1540.14 4980.24 -543.957 4438.6C452.225 3896.95 139.785 3322.32 1135.68 2780.83C2131.58 2239.33 2444.3 2813.81 3440.49 2272.16C4436.67 1730.52 4124.23 1155.88 5120.41 614.237C6116.59 72.5901 6429.03 647.221 7425.5 105.418C8421.97 -436.385 8109.24 -1010.86 9105.43 -1552.51" stroke="#A0A3BD" stroke-opacity="0.4" stroke-width="5" stroke-miterlimit="10"/>
<path d="M-352.412 9538.48C643.77 8996.83 955.577 9570.29 1951.76 9028.65C2947.94 8487 2636.13 7913.53 3632.03 7372.04C4627.93 6830.55 4940.02 7403.86 5936.2 6862.21C6932.38 6320.57 6620.58 5747.1 7616.76 5205.45C8612.94 4663.81 8924.75 5237.27 9921.22 4695.47C10917.7 4153.67 10605.6 3580.36 11601.8 3038.71" stroke="#A0A3BD" stroke-opacity="0.4" stroke-width="5" stroke-miterlimit="10"/>
<path d="M1363.16 12693.7C2359.34 12152.1 2671.15 12725.5 3667.33 12183.9C4663.51 11642.2 4351.71 11068.8 5347.6 10527.3C6343.5 9985.78 6655.59 10559.1 7651.77 10017.4C8647.95 9475.79 8336.15 8902.33 9332.33 8360.68C10328.5 7819.03 10640.3 8392.5 11636.8 7850.7C12633.3 7308.89 12321.2 6735.58 13317.3 6193.94" stroke="#A0A3BD" stroke-opacity="0.4" stroke-width="5" stroke-miterlimit="10"/>
<path d="M-3472.38 3800.33C-2476.19 3258.68 -2164.39 3832.15 -1168.21 3290.5C-172.024 2748.85 -483.83 2175.39 512.066 1633.89C1507.96 1092.4 1820.05 1665.71 2816.24 1124.07C3812.42 582.418 3500.61 8.95305 4496.79 -532.694C5492.98 -1074.34 5804.78 -500.876 6801.25 -1042.68C7797.72 -1584.48 7485.63 -2157.79 8481.81 -2699.44" stroke="#A0A3BD" stroke-opacity="0.4" stroke-width="5" stroke-miterlimit="10"/>
<path d="M-976.656 8390.38C19.5261 7848.74 331.332 8422.2 1327.51 7880.55C2323.7 7338.91 2011.89 6765.44 3007.79 6223.95C4003.68 5682.46 4315.78 6255.77 5311.96 5714.12C6308.14 5172.47 5996.33 4599.01 6992.52 4057.36C7988.7 3515.71 8300.5 4089.18 9296.97 3547.38C10293.4 3005.57 9981.35 2432.26 10977.5 1890.62" stroke="#A0A3BD" stroke-opacity="0.4" stroke-width="5" stroke-miterlimit="10"/>
<path d="M739.545 11546.8C1735.73 11005.1 2047.53 11578.6 3043.72 11036.9C4039.9 10495.3 3728.09 9921.83 4723.99 9380.34C5719.88 8838.85 6031.98 9412.16 7028.16 8870.51C8024.34 8328.86 7712.53 7755.4 8708.72 7213.75C9704.9 6672.1 10016.7 7245.57 11013.2 6703.77C12009.6 6161.96 11697.6 5588.65 12693.7 5047.01" stroke="#A0A3BD" stroke-opacity="0.4" stroke-width="5" stroke-miterlimit="10"/>
<path d="M-2224.52 6095.36C-1228.34 5553.71 -916.529 6127.17 79.6534 5585.53C1075.84 5043.88 764.029 4470.41 1759.93 3928.92C2755.82 3387.43 3067.91 3960.74 4064.1 3419.09C5060.28 2877.45 4748.47 2303.98 5744.65 1762.33C6740.84 1220.69 7052.64 1794.15 8049.11 1252.35C9045.58 710.545 8733.49 137.235 9729.67 -404.412" stroke="#A0A3BD" stroke-opacity="0.4" stroke-width="5" stroke-miterlimit="10"/>
<path d="M271.199 10685.4C1267.38 10143.8 1579.19 10717.2 2575.37 10175.6C3571.55 9633.93 3259.75 9060.47 4255.64 8518.98C5251.54 7977.49 5563.63 8550.79 6559.81 8009.15C7556 7467.5 7244.19 6894.04 8240.37 6352.39C9236.55 5810.74 9548.36 6384.21 10544.8 5842.4C11541.3 5300.6 11229.2 4727.29 12225.4 4185.64" stroke="#A0A3BD" stroke-opacity="0.4" stroke-width="5" stroke-miterlimit="10"/>
<path d="M1987.4 13841.8C2983.58 13300.2 3295.39 13873.6 4291.57 13332C5287.76 12790.3 4975.95 12216.9 5971.85 11675.4C6967.74 11133.9 7279.83 11707.2 8276.02 11165.5C9272.2 10623.9 8960.39 10050.4 9956.57 9508.78C10952.8 8967.13 11264.6 9540.6 12261 8998.79C13257.5 8456.99 12945.4 7883.68 13941.6 7342.03" stroke="#A0A3BD" stroke-opacity="0.4" stroke-width="5" stroke-miterlimit="10"/>
<path d="M-4252.52 2365.5C-3256.34 1823.85 -2944.53 2397.32 -1948.35 1855.67C-952.17 1314.02 -1263.98 740.558 -268.081 199.067C727.815 -342.425 1039.91 230.885 2036.09 -310.763C3032.27 -852.41 2720.47 -1425.88 3716.65 -1967.52C4712.83 -2509.17 5024.64 -1935.7 6021.11 -2477.51C7017.57 -3019.31 6705.48 -3592.62 7701.66 -4134.27" stroke="#A0A3BD" stroke-opacity="0.4" stroke-width="5" stroke-miterlimit="10"/>
<path d="M-1756.81 6955.55C-760.626 6413.91 -448.186 6988.54 547.996 6446.89C1544.18 5905.24 1231.74 5330.61 2227.63 4789.12C3223.53 4247.63 3536.26 4822.1 4532.44 4280.46C5528.62 3738.81 5216.18 3164.18 6212.36 2622.53C7208.55 2080.89 7520.99 2655.52 8517.45 2113.71C9513.92 1571.91 9201.2 997.434 10197.4 455.787" stroke="#A0A3BD" stroke-opacity="0.4" stroke-width="5" stroke-miterlimit="10"/>
<path d="M-3004.67 4660.53C-2008.49 4118.88 -1696.68 4692.35 -700.499 4150.7C295.683 3609.05 -16.1229 3035.59 979.773 2494.09C1975.67 1952.6 2287.76 2525.91 3283.94 1984.26C4280.13 1442.62 3968.32 869.152 4964.5 327.505C5960.68 -214.142 6272.49 359.323 7268.96 -182.48C8265.43 -724.283 7953.34 -1297.59 8949.52 -1839.24" stroke="#A0A3BD" stroke-opacity="0.4" stroke-width="5" stroke-miterlimit="10"/>
<path d="M-508.947 9250.58C487.235 8708.93 799.675 9283.57 1795.86 8741.92C2792.04 8200.27 2479.6 7625.64 3475.5 7084.15C4471.39 6542.66 4784.12 7117.13 5780.3 6575.48C6776.48 6033.84 6464.04 5459.21 7460.22 4917.56C8456.41 4375.91 8768.85 4950.54 9765.32 4408.74C10761.8 3866.94 10449.1 3292.46 11445.2 2750.81" stroke="#A0A3BD" stroke-opacity="0.4" stroke-width="5" stroke-miterlimit="10"/>
<path d="M1207.25 12407C2203.43 11865.3 2515.24 12438.8 3511.42 11897.1C4507.61 11355.5 4195.8 10782 5191.69 10240.5C6187.59 9699.05 6499.68 10272.4 7495.87 9730.71C8492.05 9189.06 8180.24 8615.6 9176.42 8073.95C10172.6 7532.3 10484.4 8105.77 11480.9 7563.96C12477.4 7022.16 12165.3 6448.85 13161.4 5907.21" stroke="#A0A3BD" stroke-opacity="0.4" stroke-width="5" stroke-miterlimit="10"/>
<path d="M-3628.28 3513.6C-2632.1 2971.95 -2320.29 3545.41 -1324.11 3003.77C-327.924 2462.12 -639.73 1888.65 356.165 1347.16C1352.06 805.671 1664.15 1378.98 2660.34 837.333C3656.52 295.686 3344.71 -277.779 4340.89 -819.427C5337.08 -1361.07 5648.88 -787.609 6645.35 -1329.41C7641.82 -1871.22 7329.73 -2444.52 8325.91 -2986.17" stroke="#A0A3BD" stroke-opacity="0.4" stroke-width="5" stroke-miterlimit="10"/>
<path d="M-1132.56 8103.65C-136.378 7562 175.428 8135.47 1171.61 7593.82C2167.79 7052.17 1855.99 6478.71 2851.88 5937.22C3847.78 5395.73 4159.87 5969.04 5156.05 5427.39C6152.24 4885.74 5840.43 4312.28 6836.61 3770.63C7832.79 3228.98 8144.6 3802.45 9141.07 3260.64C10137.5 2718.84 9825.44 2145.53 10821.6 1603.88" stroke="#A0A3BD" stroke-opacity="0.4" stroke-width="5" stroke-miterlimit="10"/>
<path d="M583.01 11258.9C1579.19 10717.2 1891.63 11291.9 2887.81 10750.2C3884 10208.6 3571.56 9633.93 4567.45 9092.44C5563.35 8550.95 5876.07 9125.43 6872.26 8583.78C7868.44 8042.13 7556 7467.5 8552.18 6925.85C9548.36 6384.21 9860.8 6958.84 10857.3 6417.03C11853.7 5875.23 11541 5300.76 12537.2 4759.11" stroke="#A0A3BD" stroke-opacity="0.4" stroke-width="5" stroke-miterlimit="10"/>
<path d="M-2380.42 5808.62C-1384.24 5266.98 -1072.43 5840.44 -76.249 5298.8C919.933 4757.15 608.127 4183.68 1604.02 3642.19C2599.92 3100.7 2912.01 3674.01 3908.19 3132.36C4904.38 2590.72 4592.57 2017.25 5588.75 1475.6C6584.93 933.955 6896.74 1507.42 7893.21 965.617C8889.68 423.814 8577.59 -149.495 9573.77 -691.143" stroke="#A0A3BD" stroke-opacity="0.4" stroke-width="5" stroke-miterlimit="10"/>
<path d="M115.299 10398.7C1111.48 9857.03 1423.29 10430.5 2419.47 9888.85C3415.65 9347.2 3103.85 8773.73 4099.74 8232.24C5095.64 7690.75 5407.73 8264.06 6403.91 7722.41C7400.09 7180.77 7088.29 6607.3 8084.47 6065.65C9080.65 5524.01 9392.46 6097.47 10388.9 5555.67C11385.4 5013.86 11073.3 4440.56 12069.5 3898.91" stroke="#A0A3BD" stroke-opacity="0.4" stroke-width="5" stroke-miterlimit="10"/>
<path d="M1831.5 13555.1C2827.68 13013.4 3139.49 13586.9 4135.67 13045.2C5131.85 12503.6 4820.05 11930.1 5815.94 11388.6C6811.84 10847.1 7123.93 11420.5 8120.11 10878.8C9116.3 10337.2 8804.49 9763.7 9800.67 9222.05C10796.9 8680.4 11108.7 9253.87 12105.1 8712.06C13101.6 8170.26 12789.5 7596.95 13785.7 7055.3" stroke="#A0A3BD" stroke-opacity="0.4" stroke-width="5" stroke-miterlimit="10"/>
<path d="M-3940.72 2938.96C-2944.54 2397.32 -2632.1 2971.95 -1635.91 2430.3C-639.732 1888.65 -952.172 1314.02 43.724 772.531C1039.62 231.04 1352.35 805.515 2348.53 263.868C3344.71 -277.78 3032.27 -852.41 4028.45 -1394.06C5024.64 -1935.7 5337.08 -1361.07 6333.54 -1902.88C7330.01 -2444.68 7017.29 -3019.16 8013.47 -3560.8" stroke="#A0A3BD" stroke-opacity="0.4" stroke-width="5" stroke-miterlimit="10"/>
<path d="M-1444.37 7530.19C-448.185 6988.54 -136.379 7562 859.804 7020.36C1855.99 6478.71 1544.18 5905.24 2540.08 5363.75C3535.97 4822.26 3848.06 5395.57 4844.25 4853.92C5840.43 4312.28 5528.62 3738.81 6524.8 3197.16C7520.99 2655.52 7832.79 3228.98 8829.26 2687.18C9825.73 2145.37 9513.64 1572.07 10509.8 1030.42" stroke="#A0A3BD" stroke-opacity="0.4" stroke-width="5" stroke-miterlimit="10"/>
<path d="M-2692.86 5233.99C-1696.68 4692.34 -1384.24 5266.98 -388.057 4725.33C608.126 4183.68 295.686 3609.05 1291.58 3067.56C2287.48 2526.07 2600.2 3100.54 3596.39 2558.9C4592.57 2017.25 4280.13 1442.62 5276.31 900.97C6272.49 359.323 6584.93 933.953 7581.4 392.15C8577.87 -149.653 8265.14 -724.128 9261.33 -1265.78" stroke="#A0A3BD" stroke-opacity="0.4" stroke-width="5" stroke-miterlimit="10"/>
<path d="M-196.508 9825.21C799.674 9283.56 1111.48 9857.03 2107.66 9315.38C3103.85 8773.73 2792.04 8200.27 3787.93 7658.78C4783.83 7117.29 5095.92 7690.6 6092.11 7148.95C7088.29 6607.3 6776.48 6033.84 7772.66 5492.19C8768.85 4950.54 9080.65 5524.01 10077.1 4982.2C11073.6 4440.4 10761.5 3867.09 11757.7 3325.44" stroke="#A0A3BD" stroke-opacity="0.4" stroke-width="5" stroke-miterlimit="10"/>
<path d="M1519.06 12980.4C2515.24 12438.8 2827.68 13013.4 3823.87 12471.8C4820.05 11930.1 4507.61 11355.5 5503.5 10814C6499.4 10272.5 6812.13 10847 7808.31 10305.3C8804.49 9763.69 8492.05 9189.06 9488.23 8647.41C10484.4 8105.77 10796.9 8680.4 11793.3 8138.59C12789.8 7596.79 12477.1 7022.32 13473.2 6480.67" stroke="#A0A3BD" stroke-opacity="0.4" stroke-width="5" stroke-miterlimit="10"/>
<path d="M-3316.47 4087.06C-2320.29 3545.42 -2008.48 4118.88 -1012.3 3577.23C-16.1194 3035.59 -327.926 2462.12 667.97 1920.63C1663.87 1379.14 1975.96 1952.45 2972.14 1410.8C3968.32 869.153 3656.52 295.687 4652.7 -245.96C5648.88 -787.607 5960.69 -214.142 6957.16 -755.945C7953.63 -1297.75 7641.53 -1871.06 8637.71 -2412.71" stroke="#A0A3BD" stroke-opacity="0.4" stroke-width="5" stroke-miterlimit="10"/>
<path d="M-820.758 8677.12C175.424 8135.47 487.231 8708.93 1483.41 8167.29C2479.6 7625.64 2167.79 7052.17 3163.68 6510.68C4159.58 5969.19 4471.67 6542.5 5467.86 6000.85C6464.04 5459.21 6152.23 4885.74 7148.41 4344.09C8144.6 3802.45 8456.4 4375.91 9452.87 3834.11C10449.3 3292.3 10137.2 2718.99 11133.4 2177.35" stroke="#A0A3BD" stroke-opacity="0.4" stroke-width="5" stroke-miterlimit="10"/>
<path d="M895.445 11833.5C1891.63 11291.9 2203.43 11865.3 3199.62 11323.7C4195.8 10782 3883.99 10208.6 4879.89 9667.07C5875.78 9125.58 6187.88 9698.89 7184.06 9157.25C8180.24 8615.6 7868.43 8042.13 8864.62 7500.49C9860.8 6958.84 10172.6 7532.3 11169.1 6990.5C12165.5 6448.7 11853.5 5875.39 12849.6 5333.74" stroke="#A0A3BD" stroke-opacity="0.4" stroke-width="5" stroke-miterlimit="10"/>
<path d="M-2068.62 6382.09C-1072.43 5840.44 -760.629 6413.91 235.554 5872.26C1231.74 5330.61 919.93 4757.15 1915.83 4215.66C2911.72 3674.16 3223.81 4247.47 4220 3705.83C5216.18 3164.18 4904.37 2590.71 5900.55 2049.07C6896.74 1507.42 7208.54 2080.89 8205.01 1539.08C9201.48 997.279 8889.39 423.97 9885.57 -117.678" stroke="#A0A3BD" stroke-opacity="0.4" stroke-width="5" stroke-miterlimit="10"/>
<path d="M427.104 10972.1C1423.29 10430.5 1735.73 11005.1 2731.91 10463.5C3728.09 9921.83 3415.65 9347.2 4411.55 8805.71C5407.44 8264.22 5720.17 8838.69 6716.35 8297.05C7712.53 7755.4 7400.09 7180.77 8396.28 6639.12C9392.46 6097.47 9704.9 6672.11 10701.4 6130.3C11697.8 5588.5 11385.1 5014.02 12381.3 4472.38" stroke="#A0A3BD" stroke-opacity="0.4" stroke-width="5" stroke-miterlimit="10"/>
<path d="M2143.3 14128.5C3139.49 13586.9 3451.29 14160.4 4447.48 13618.7C5443.66 13077.1 5131.85 12503.6 6127.75 11962.1C7123.64 11420.6 7435.74 11993.9 8431.92 11452.3C9428.1 10910.6 9116.29 10337.2 10112.5 9795.51C11108.7 9253.86 11420.5 9827.33 12416.9 9285.53C13413.4 8743.72 13101.3 8170.41 14097.5 7628.77" stroke="#A0A3BD" stroke-opacity="0.4" stroke-width="5" stroke-miterlimit="10"/>
</g>
<defs>
<clipPath id="clip0_2104_291">
<rect width="10000" height="10000" fill="white"/>
</clipPath>
</defs>
</svg>
