<svg width="500" height="500" viewBox="0 0 500 500" fill="none" xmlns="http://www.w3.org/2000/svg">
<path d="M171.114 395L159.635 398.497L162.225 407H171.114V395ZM104.636 176.818V164.818H88.4355L93.1574 180.316L104.636 176.818ZM139.864 176.818L151.412 173.558L148.945 164.818H139.864V176.818ZM187.023 343.864L175.474 347.124L177.941 355.864H187.023V343.864ZM189.295 343.864V355.864H198.407L200.854 347.088L189.295 343.864ZM235.886 176.818V164.818H226.775L224.328 173.594L235.886 176.818ZM271.682 176.818L283.248 173.621L280.815 164.818H271.682V176.818ZM317.705 343.295L306.138 346.493L308.572 355.295H317.705V343.295ZM319.977 343.295V355.295H329.05L331.523 346.566L319.977 343.295ZM367.136 176.818V164.818H358.064L355.591 173.548L367.136 176.818ZM402.364 176.818L413.843 180.316L418.565 164.818H402.364V176.818ZM335.886 395V407H344.775L347.365 398.497L335.886 395ZM302.932 395L291.391 398.286L293.872 407H302.932V395ZM255.205 227.386L266.746 224.1L264.265 215.386H255.205V227.386ZM251.795 227.386V215.386H242.735L240.254 224.1L251.795 227.386ZM204.068 395V407H213.128L215.609 398.286L204.068 395ZM182.593 391.503L116.115 173.321L93.1574 180.316L159.635 398.497L182.593 391.503ZM104.636 188.818H139.864V164.818H104.636V188.818ZM128.315 180.078L175.474 347.124L198.571 340.603L151.412 173.558L128.315 180.078ZM187.023 355.864H189.295V331.864H187.023V355.864ZM200.854 347.088L247.445 180.042L224.328 173.594L177.737 340.64L200.854 347.088ZM235.886 188.818H271.682V164.818H235.886V188.818ZM260.116 180.016L306.138 346.493L329.271 340.098L283.248 173.621L260.116 180.016ZM317.705 355.295H319.977V331.295H317.705V355.295ZM331.523 346.566L378.682 180.089L355.591 173.548L308.432 340.025L331.523 346.566ZM367.136 188.818H402.364V164.818H367.136V188.818ZM390.885 173.321L324.407 391.503L347.365 398.497L413.843 180.316L390.885 173.321ZM335.886 383H302.932V407H335.886V383ZM314.473 391.714L266.746 224.1L243.663 230.673L291.391 398.286L314.473 391.714ZM255.205 215.386H251.795V239.386H255.205V215.386ZM240.254 224.1L192.527 391.714L215.609 398.286L263.337 230.673L240.254 224.1ZM204.068 383H171.114V407H204.068V383Z" fill="black"/>
<path d="M99.8074 176.5L146.307 172.5L191.307 338.5L172.307 401L99.8074 176.5Z" fill="black"/>
<path d="M232 168L277.5 170.5L323.5 332L303.5 399L232 168Z" fill="black"/>
<path d="M383.463 143.06L378.636 144.362L379.633 148.06H383.463V143.06ZM379.912 135.176L375.765 137.969L375.778 137.989L375.792 138.009L379.912 135.176ZM366.347 125.659L364.953 130.461L364.988 130.471L365.024 130.481L366.347 125.659ZM338.364 129.494L335.608 125.322L335.599 125.328L335.59 125.334L338.364 129.494ZM326.503 144.409L331.095 146.387L331.1 146.375L326.503 144.409ZM326.361 191.923L330.987 190.026L326.361 191.923ZM338.08 206.98L340.88 202.838H340.88L338.08 206.98ZM373.023 209.04L375.142 213.568L375.153 213.563L375.163 213.558L373.023 209.04ZM383.25 200.02L378.958 197.455L383.25 200.02ZM386.73 186.312L387.324 181.348L381.73 180.679V186.312H386.73ZM393.264 187.094V192.094L393.858 182.129L393.264 187.094ZM357.895 187.094H352.895V192.094H357.895V187.094ZM357.895 161.455V156.455H352.895V161.455H357.895ZM420.608 161.455H425.608V156.455H420.608V161.455ZM412.298 214.153L408.005 211.591L408 211.599L407.995 211.607L412.298 214.153ZM389.571 235.531L387.283 231.086L387.274 231.09L389.571 235.531ZM319.827 233.969L322.31 229.629L319.827 233.969ZM295.253 208.259L290.827 210.584L290.831 210.592L295.253 208.259ZM291.773 136.739L296.439 138.534L296.443 138.526L291.773 136.739ZM306.616 113.159L303.068 109.637L303.061 109.643L303.055 109.65L306.616 113.159ZM328.776 98.5284L326.946 93.8753L326.937 93.8788L328.776 98.5284ZM379.486 97.179L377.905 101.922L377.914 101.925L379.486 97.179ZM398.804 107.406L395.709 111.333L395.717 111.34L395.725 111.346L398.804 107.406ZM412.511 123.102L408.183 125.605L412.511 123.102ZM419.045 143.06V148.06H424.668L424.011 142.475L419.045 143.06ZM388.29 141.757C387.356 138.293 385.951 135.135 384.032 132.343L375.792 138.009C376.998 139.763 377.961 141.861 378.636 144.362L388.29 141.757ZM384.059 132.383C382.16 129.564 379.818 127.162 377.049 125.201L371.269 133.361C373.046 134.62 374.539 136.148 375.765 137.969L384.059 132.383ZM377.049 125.201C374.259 123.225 371.114 121.782 367.669 120.837L365.024 130.481C367.45 131.146 369.514 132.118 371.269 133.361L377.049 125.201ZM367.741 120.857C364.292 119.856 360.596 119.381 356.688 119.381V129.381C359.787 129.381 362.53 129.758 364.953 130.461L367.741 120.857ZM356.688 119.381C348.795 119.381 341.697 121.3 335.608 125.322L341.119 133.666C345.352 130.871 350.471 129.381 356.688 129.381V119.381ZM335.59 125.334C329.548 129.362 325.02 135.159 321.905 142.444L331.1 146.375C333.573 140.591 336.952 136.445 341.137 133.655L335.59 125.334ZM321.911 142.431C318.778 149.706 317.312 158.303 317.312 168.06H327.312C327.312 159.256 328.641 152.086 331.095 146.387L321.911 142.431ZM317.312 168.06C317.312 177.846 318.725 186.481 321.735 193.82L330.987 190.026C328.599 184.202 327.312 176.929 327.312 168.06H317.312ZM321.735 193.82C324.749 201.171 329.23 207.034 335.28 211.123L340.88 202.838C336.702 200.014 333.37 195.838 330.987 190.026L321.735 193.82ZM335.28 211.123C341.361 215.233 348.583 217.165 356.688 217.165V207.165C350.209 207.165 345.025 205.64 340.88 202.838L335.28 211.123ZM356.688 217.165C363.642 217.165 369.856 216.043 375.142 213.568L370.903 204.511C367.288 206.203 362.612 207.165 356.688 207.165V217.165ZM375.163 213.558C380.463 211.048 384.663 207.402 387.542 202.585L378.958 197.455C377.196 200.403 374.579 202.77 370.882 204.521L375.163 213.558ZM387.542 202.585C390.396 197.809 391.73 192.323 391.73 186.312H381.73C381.73 190.813 380.744 194.466 378.958 197.455L387.542 202.585ZM386.137 191.277L392.671 192.058L393.858 182.129L387.324 181.348L386.137 191.277ZM393.264 182.094H357.895V192.094H393.264V182.094ZM362.895 187.094V161.455H352.895V187.094H362.895ZM357.895 166.455H420.608V156.455H357.895V166.455ZM415.608 161.455V180.702H425.608V161.455H415.608ZM415.608 180.702C415.608 193.005 412.996 203.23 408.005 211.591L416.592 216.716C422.68 206.516 425.608 194.44 425.608 180.702H415.608ZM407.995 211.607C402.986 220.071 396.112 226.541 387.283 231.086L391.859 239.977C402.349 234.578 410.626 226.797 416.601 216.7L407.995 211.607ZM387.274 231.09C378.475 235.641 368.229 237.989 356.403 237.989V247.989C369.578 247.989 381.444 245.364 391.868 239.972L387.274 231.09ZM356.403 237.989C343.273 237.989 331.961 235.15 322.31 229.629L317.344 238.309C328.716 244.814 341.788 247.989 356.403 247.989V237.989ZM322.31 229.629C312.655 224.106 305.121 216.247 299.675 205.925L290.831 210.592C297.127 222.524 305.976 231.805 317.344 238.309L322.31 229.629ZM299.679 205.933C294.258 195.615 291.446 183.189 291.446 168.486H281.446C281.446 184.464 284.506 198.554 290.827 210.584L299.679 205.933ZM291.446 168.486C291.446 157.045 293.149 147.089 296.439 138.534L287.106 134.944C283.294 144.854 281.446 156.063 281.446 168.486H291.446ZM296.443 138.526C299.772 129.825 304.364 122.569 310.178 116.668L303.055 109.65C296.18 116.628 290.876 125.091 287.103 134.952L296.443 138.526ZM310.165 116.682C316.074 110.728 322.88 106.237 330.614 103.178L326.937 93.8788C317.91 97.4487 309.943 102.711 303.068 109.637L310.165 116.682ZM330.605 103.182C338.41 100.112 346.852 98.5568 355.977 98.5568V88.5568C345.69 88.5568 335.997 90.3156 326.946 93.8753L330.605 103.182ZM355.977 98.5568C363.923 98.5568 371.22 99.6942 377.905 101.922L381.067 92.4356C373.263 89.8342 364.887 88.5568 355.977 88.5568V98.5568ZM377.914 101.925C384.698 104.172 390.613 107.317 395.709 111.333L401.899 103.479C395.82 98.6886 388.857 95.0153 381.058 92.4325L377.914 101.925ZM395.725 111.346C400.866 115.363 405.007 120.111 408.183 125.605L416.84 120.6C413.009 113.972 408.011 108.256 401.883 103.467L395.725 111.346ZM408.183 125.605C411.331 131.051 413.304 137.047 414.08 143.644L424.011 142.475C423.083 134.584 420.699 127.274 416.84 120.6L408.183 125.605ZM419.045 138.06H383.463V148.06H419.045V138.06Z" fill="#612072"/>
<path d="M288 165H319L325.5 198L337 210.5L356 215.5L383 207.5L389.5 195L387.5 183.5H361.5V165H416V198L406.5 215.5L394.5 229L377 238H337L325.5 233L311 224.5L298 207.5L288 165Z" fill="#612072"/>
<rect x="91" y="121" width="186" height="34" fill="#612072"/>
<path d="M116.737 130.3C117.003 130.566 117.136 130.909 117.136 131.329C117.136 131.679 117.059 132.036 116.905 132.4L111.949 145L111.718 145.105L108.946 136.306L105.523 145L105.292 145.105L100.63 130.3H102.415L106.174 142.732L108.841 135.97L107.056 130.3H108.841L112.6 142.732L116.653 132.4C116.807 132.05 116.884 131.686 116.884 131.308C116.884 130.93 116.779 130.636 116.569 130.426L116.737 130.3ZM116.755 145H116.503L122.782 130.3L123.013 130.195L128.305 145H126.52L124.882 140.38H118.75L116.755 145ZM122.131 132.568L118.834 140.17H124.819L122.131 132.568ZM130.201 130.468C131.825 130.356 133.26 130.3 134.506 130.3C137.964 130.3 139.693 131.455 139.693 133.765C139.693 134.745 139.455 135.62 138.979 136.39C138.503 137.16 137.684 137.671 136.522 137.923L140.722 145H138.769L134.653 138.049H131.944V145H130.201V130.468ZM134.506 130.51C133.694 130.51 132.84 130.559 131.944 130.657V137.839H135.052C137.026 137.755 138.013 136.411 138.013 133.807C138.013 132.743 137.719 131.931 137.131 131.371C136.543 130.797 135.668 130.51 134.506 130.51ZM142.814 130.468C144.438 130.356 145.873 130.3 147.119 130.3C150.577 130.3 152.306 131.455 152.306 133.765C152.306 134.745 152.068 135.62 151.592 136.39C151.116 137.16 150.297 137.671 149.135 137.923L153.335 145H151.382L147.266 138.049H144.557V145H142.814V130.468ZM147.119 130.51C146.307 130.51 145.453 130.559 144.557 130.657V137.839H147.665C149.639 137.755 150.626 136.411 150.626 133.807C150.626 132.743 150.332 131.931 149.744 131.371C149.156 130.797 148.281 130.51 147.119 130.51ZM155.016 130.51V130.3H158.754V130.51H157.725V144.79H158.754V145H155.016V144.79H155.982V130.51H155.016ZM160.871 138.007C160.871 135.459 161.487 133.527 162.719 132.211C163.965 130.881 165.561 130.216 167.507 130.216C169.453 130.216 171 130.79 172.148 131.938C173.31 133.086 173.891 134.92 173.891 137.44C173.891 139.96 173.275 141.864 172.043 143.152C170.811 144.44 169.166 145.084 167.108 145.084C165.33 145.084 163.874 144.573 162.74 143.551C162.152 143.019 161.69 142.284 161.354 141.346C161.032 140.394 160.871 139.281 160.871 138.007ZM167.444 130.426C166.03 130.426 164.868 131.056 163.958 132.316C163.062 133.576 162.614 135.424 162.614 137.86C162.614 140.296 163.041 142.074 163.895 143.194C164.749 144.314 165.883 144.874 167.297 144.874C168.725 144.874 169.887 144.244 170.783 142.984C171.693 141.71 172.148 139.869 172.148 137.461C172.148 135.039 171.714 133.261 170.846 132.127C169.992 130.993 168.858 130.426 167.444 130.426ZM176.2 130.468C177.824 130.356 179.259 130.3 180.505 130.3C183.963 130.3 185.692 131.455 185.692 133.765C185.692 134.745 185.454 135.62 184.978 136.39C184.502 137.16 183.683 137.671 182.521 137.923L186.721 145H184.768L180.652 138.049H177.943V145H176.2V130.468ZM180.505 130.51C179.693 130.51 178.839 130.559 177.943 130.657V137.839H181.051C183.025 137.755 184.012 136.411 184.012 133.807C184.012 132.743 183.718 131.931 183.13 131.371C182.542 130.797 181.667 130.51 180.505 130.51ZM196.562 131.182C195.288 130.692 194.084 130.447 192.95 130.447C191.83 130.447 190.955 130.685 190.325 131.161C189.695 131.637 189.38 132.295 189.38 133.135C189.38 134.157 189.912 134.948 190.976 135.508C191.452 135.746 191.97 135.97 192.53 136.18C193.104 136.376 193.678 136.6 194.252 136.852C194.826 137.104 195.351 137.391 195.827 137.713C196.303 138.035 196.688 138.483 196.982 139.057C197.276 139.617 197.423 140.338 197.423 141.22C197.423 142.088 197.178 142.83 196.688 143.446C196.198 144.062 195.603 144.482 194.903 144.706C194.217 144.916 193.412 145.021 192.488 145.021C190.766 145.021 189.296 144.594 188.078 143.74L188.183 143.572C188.645 143.936 189.24 144.237 189.968 144.475C190.71 144.699 191.466 144.811 192.236 144.811C193.37 144.811 194.336 144.552 195.134 144.034C195.946 143.502 196.352 142.725 196.352 141.703C196.352 140.583 195.82 139.708 194.756 139.078C194.28 138.798 193.755 138.539 193.181 138.301C192.621 138.063 192.054 137.818 191.48 137.566C190.906 137.3 190.381 137.006 189.905 136.684C188.841 135.984 188.309 134.99 188.309 133.702C188.309 132.68 188.652 131.854 189.338 131.224C190.024 130.58 191.053 130.258 192.425 130.258C193.811 130.258 195.218 130.496 196.646 130.972L196.562 131.182ZM212.805 145.084C210.187 145.084 208.248 144.342 206.988 142.858C206.54 142.326 206.176 141.619 205.896 140.737C205.616 139.855 205.476 138.784 205.476 137.524C205.476 136.264 205.679 135.137 206.085 134.143C206.505 133.135 207.072 132.358 207.786 131.812C209.172 130.79 210.845 130.279 212.805 130.279C213.435 130.279 214.051 130.328 214.653 130.426C215.255 130.51 215.703 130.601 215.997 130.699L216.438 130.846L216.375 131.056C215.283 130.678 214.093 130.489 212.805 130.489C211.321 130.489 210.082 130.972 209.088 131.938C208.332 132.652 207.8 133.702 207.492 135.088C207.31 135.872 207.219 136.831 207.219 137.965C207.219 139.099 207.38 140.149 207.702 141.115C208.024 142.067 208.388 142.774 208.794 143.236C209.214 143.698 209.718 144.069 210.306 144.349C210.894 144.615 211.363 144.769 211.713 144.811C212.063 144.853 212.476 144.874 212.952 144.874C213.442 144.874 214.093 144.818 214.905 144.706V140.38H212.364V140.17H217.551V140.38H216.648V144.517C215.584 144.895 214.303 145.084 212.805 145.084ZM219.533 130.468C221.157 130.356 222.592 130.3 223.838 130.3C227.296 130.3 229.025 131.455 229.025 133.765C229.025 134.745 228.787 135.62 228.311 136.39C227.835 137.16 227.016 137.671 225.854 137.923L230.054 145H228.101L223.985 138.049H221.276V145H219.533V130.468ZM223.838 130.51C223.026 130.51 222.172 130.559 221.276 130.657V137.839H224.384C226.358 137.755 227.345 136.411 227.345 133.807C227.345 132.743 227.051 131.931 226.463 131.371C225.875 130.797 225 130.51 223.838 130.51ZM231.09 138.007C231.09 135.459 231.706 133.527 232.938 132.211C234.184 130.881 235.78 130.216 237.726 130.216C239.672 130.216 241.219 130.79 242.367 131.938C243.529 133.086 244.11 134.92 244.11 137.44C244.11 139.96 243.494 141.864 242.262 143.152C241.03 144.44 239.385 145.084 237.327 145.084C235.549 145.084 234.093 144.573 232.959 143.551C232.371 143.019 231.909 142.284 231.573 141.346C231.251 140.394 231.09 139.281 231.09 138.007ZM237.663 130.426C236.249 130.426 235.087 131.056 234.177 132.316C233.281 133.576 232.833 135.424 232.833 137.86C232.833 140.296 233.26 142.074 234.114 143.194C234.968 144.314 236.102 144.874 237.516 144.874C238.944 144.874 240.106 144.244 241.002 142.984C241.912 141.71 242.367 139.869 242.367 137.461C242.367 135.039 241.933 133.261 241.065 132.127C240.211 130.993 239.077 130.426 237.663 130.426ZM256.52 130.3H256.793V138.7C256.793 140.898 256.359 142.515 255.491 143.551C254.623 144.573 253.489 145.084 252.089 145.084C251.207 145.084 250.458 145.007 249.842 144.853C249.226 144.685 248.645 144.384 248.099 143.95C246.979 143.082 246.419 141.332 246.419 138.7V130.3H248.162V138.679C248.162 141.227 248.547 142.928 249.317 143.782C249.709 144.202 250.115 144.489 250.535 144.643C250.969 144.797 251.487 144.874 252.089 144.874C253.433 144.874 254.504 144.384 255.302 143.404C256.114 142.41 256.52 140.835 256.52 138.679V130.3ZM259.421 130.468C261.045 130.356 262.473 130.3 263.705 130.3C267.177 130.3 268.913 131.525 268.913 133.975C268.913 135.109 268.619 136.103 268.031 136.957C267.723 137.419 267.247 137.79 266.603 138.07C265.959 138.336 265.182 138.469 264.272 138.469H261.164V145H259.421V130.468ZM263.726 130.51C262.914 130.51 262.06 130.559 261.164 130.657V138.259H264.272C266.246 138.175 267.233 136.761 267.233 134.017C267.233 132.897 266.939 132.036 266.351 131.434C265.763 130.818 264.888 130.51 263.726 130.51ZM271.229 145.084C271.047 145.084 270.886 145.021 270.746 144.895C270.62 144.755 270.557 144.594 270.557 144.412C270.557 144.216 270.62 144.055 270.746 143.929C270.872 143.803 271.026 143.74 271.208 143.74C271.404 143.74 271.565 143.81 271.691 143.95C271.831 144.076 271.901 144.23 271.901 144.412C271.901 144.594 271.831 144.755 271.691 144.895C271.565 145.021 271.411 145.084 271.229 145.084Z" fill="white"/>
</svg>
